<?xml version="1.0" encoding="UTF-8" standalone="no"?>
<svg
   xmlns:dc="http://purl.org/dc/elements/1.1/"
   xmlns:cc="http://creativecommons.org/ns#"
   xmlns:rdf="http://www.w3.org/1999/02/22-rdf-syntax-ns#"
   xmlns:svg="http://www.w3.org/2000/svg"
   xmlns="http://www.w3.org/2000/svg"
   xmlns:sodipodi="http://sodipodi.sourceforge.net/DTD/sodipodi-0.dtd"
   xmlns:inkscape="http://www.inkscape.org/namespaces/inkscape"
   viewBox="0 0 500 500"
   version="1.1"
   id="svg6"
   sodipodi:docname="eigenprodukte.svg"
   width="500"
   height="500"
   inkscape:version="0.92.2 (5c3e80d, 2017-08-06)">
  <metadata
     id="metadata12">
    <rdf:RDF>
      <cc:Work
         rdf:about="">
        <dc:format>image/svg+xml</dc:format>
        <dc:type
           rdf:resource="http://purl.org/dc/dcmitype/StillImage" />
        <dc:title />
      </cc:Work>
    </rdf:RDF>
  </metadata>
  <defs
     id="defs10" />
  <sodipodi:namedview
     pagecolor="#ffffff"
     bordercolor="#666666"
     borderopacity="1"
     objecttolerance="10"
     gridtolerance="10"
     guidetolerance="10"
     inkscape:pageopacity="0"
     inkscape:pageshadow="2"
     inkscape:window-width="1920"
     inkscape:window-height="1016"
     id="namedview8"
     showgrid="false"
     inkscape:zoom="1.0488889"
     inkscape:cx="231.08422"
     inkscape:cy="206.17567"
     inkscape:window-x="2560"
     inkscape:window-y="807"
     inkscape:window-maximized="1"
     inkscape:current-layer="svg6" />
  <path
     d="m 397.72997,452.27106 c -11.55273,8.34424 -15.98002,-3.67769 -28.34508,3.42213 -12.36395,7.09761 -4.11613,16.92848 -17.15796,22.70167 -13.04405,5.77431 -14.86208,-6.90316 -28.44065,-2.5166 -13.57634,4.38878 -7.56439,15.71072 -21.52746,18.66621 -13.96417,2.95548 -13.09516,-9.82199 -27.29271,-8.34424 -14.19643,1.48885 -10.68149,13.81077 -24.95571,13.81077 -14.27422,0 -10.74595,-12.31081 -24.94794,-13.79966 -14.19088,-1.48886 -13.3352,11.29972 -27.29271,8.34424 -13.95751,-2.95549 -7.94556,-14.26632 -21.51412,-18.66621 -13.56857,-4.38878 -15.39105,8.28868 -28.43732,2.49994 -13.03516,-5.77764 -4.77845,-15.58851 -17.14684,-22.69945 -12.35729,-7.09983 -16.79124,4.93321 -28.3373,-3.43325 C 90.788104,443.91237 100.91174,436.01256 90.31026,426.50169 79.708775,417.00192 72.863372,427.8461 63.306479,417.2908 53.760698,406.74661 65.317871,401.0912 56.927808,389.6137 48.537744,378.12509 39.580935,387.31376 32.43549,375.01406 25.301158,362.71436 37.780683,359.59221 31.97987,346.61475 26.167946,333.63729 15.488673,340.77045 11.076944,327.25967 6.6652151,313.76 19.522571,313.28223 16.566601,299.39368 13.588407,285.49402 1.6422896,290.26057 0.1531922,276.1387 -1.3370164,262.0046 11.342537,264.20454 11.353649,250.00489 c 0,-14.1941 -12.6817753,-12.00415 -11.18378779,-26.13269 C 1.6656262,209.75476 13.610632,214.52354 16.572158,200.62832 19.53924,186.73977 6.6818841,186.262 11.093613,172.75678 c 4.411729,-13.51078 15.096558,-6.37762 20.90626,-19.34397 5.811925,-12.97746 -6.678713,-16.11072 0.466732,-28.41042 7.145445,-12.2997 16.102255,-3.11103 24.492318,-14.59964 8.380063,-11.496388 -3.177111,-17.140695 6.379782,-27.69377 9.556894,-10.553075 16.391184,0.293326 27.003781,-9.207553 10.601484,-9.49199 0.488958,-17.410685 12.035014,-25.747148 11.55051,-8.349796 15.98002,3.677688 28.33731,-3.422138 12.36061,-7.099827 4.11168,-16.93292 17.15795,-22.699446 13.03738,-5.783191 14.85764,6.899832 28.43732,2.51105 13.57968,-4.388781 7.56772,-15.708505 21.52523,-18.660655 13.96863,-2.948816 13.09406,9.82976 27.29271,8.344241 14.17977,-1.505519 10.66816,-13.821885 24.93683,-13.816329 14.282,0 10.75484,12.317477 24.95238,13.806329 14.20199,1.484408 13.33076,-11.294168 27.29827,-8.337574 13.95751,2.957706 7.93444,14.274096 21.51412,18.66621 13.56857,4.388782 15.39105,-8.28313 28.43732,-2.502161 13.03515,5.78097 4.78956,15.607397 17.14684,22.710556 12.35729,7.10316 16.79124,-4.91988 28.3373,3.429916 11.54606,8.348685 1.41131,16.251825 12.02391,25.757148 10.61259,9.499768 17.458,-1.344411 27.00378,9.221997 9.54578,10.555298 -2.01139,16.188493 6.37867,27.677097 8.39006,11.48861 17.34687,2.29995 24.49232,14.59965 7.13433,12.2997 -5.3452,15.42184 0.45562,28.3993 5.80081,12.96635 16.49119,5.8443 20.90292,19.35509 4.40062,13.49967 -8.46785,13.97743 -5.48965,27.86598 2.95597,13.88855 14.90208,9.122 16.39118,23.24388 1.4891,14.12187 -11.19046,11.92193 -11.20157,26.13269 0,14.19965 12.67955,11.99971 11.17934,26.1327 -1.50021,14.12187 -13.44632,9.34421 -16.4134,23.24387 -2.97375,13.88855 9.89027,14.36632 5.47298,27.86599 -4.41172,13.51078 -15.091,6.36651 -20.90292,19.34397 -5.81193,12.97746 6.6676,16.09961 -0.47229,28.3993 -7.13433,12.2997 -16.10226,3.11104 -24.49232,14.59076 -8.39006,11.48861 3.16711,17.13291 -6.39312,27.68154 -9.55689,10.5553 -16.40229,-0.28888 -27.01489,9.21311 -10.6126,9.49977 -0.48896,17.41069 -12.03502,25.75493 z"
     id="path2"
     inkscape:connector-curvature="0"
     style="fill:#98a429;stroke-width:1.1111753;fill-opacity:1" />
  <text
     xml:space="preserve"
     style="font-style:normal;font-variant:normal;font-weight:normal;font-stretch:normal;font-size:61.33333206px;line-height:1.25;font-family:Merriweather;-inkscape-font-specification:Merriweather;letter-spacing:0px;word-spacing:0px;fill:#ffffff;fill-opacity:1;stroke:none"
     x="252.00017"
     y="187.59042"
     id="text814"><tspan
       sodipodi:role="line"
       id="tspan812"
       x="252.00017"
       y="187.59042"
       style="font-size:56px;text-align:center;text-anchor:middle;fill:#ffffff;fill-opacity:1">Jetzt NEU:</tspan><tspan
       sodipodi:role="line"
       x="252.00017"
       y="264.25708"
       id="tspan816"
       style="font-size:56px;text-align:center;text-anchor:middle;fill:#ffffff;fill-opacity:1">Unsere Eigen-</tspan><tspan
       sodipodi:role="line"
       x="252.00017"
       y="340.92377"
       id="tspan818"
       style="font-size:56px;text-align:center;text-anchor:middle;fill:#ffffff;fill-opacity:1">produkte!</tspan></text>
</svg>
