<?xml version="1.0" encoding="UTF-8" standalone="no"?>
<svg
   xmlns:dc="http://purl.org/dc/elements/1.1/"
   xmlns:cc="http://creativecommons.org/ns#"
   xmlns:rdf="http://www.w3.org/1999/02/22-rdf-syntax-ns#"
   xmlns:svg="http://www.w3.org/2000/svg"
   xmlns="http://www.w3.org/2000/svg"
   xmlns:sodipodi="http://sodipodi.sourceforge.net/DTD/sodipodi-0.dtd"
   xmlns:inkscape="http://www.inkscape.org/namespaces/inkscape"
   viewBox="0 0 500 500"
   version="1.1"
   id="svg6"
   sodipodi:docname="eigenprodukte.svg"
   inkscape:version="0.92.2 (5c3e80d, 2017-08-06)">
  <metadata
     id="metadata12">
    <rdf:RDF>
      <cc:Work
         rdf:about="">
        <dc:format>image/svg+xml</dc:format>
        <dc:type
           rdf:resource="http://purl.org/dc/dcmitype/StillImage" />
        <dc:title />
      </cc:Work>
    </rdf:RDF>
  </metadata>
  <defs
     id="defs10" />
  <sodipodi:namedview
     pagecolor="#ffffff"
     bordercolor="#666666"
     borderopacity="1"
     objecttolerance="10"
     gridtolerance="10"
     guidetolerance="10"
     inkscape:pageopacity="0"
     inkscape:pageshadow="2"
     inkscape:window-width="2560"
     inkscape:window-height="1403"
     id="namedview8"
     showgrid="false"
     inkscape:zoom="1.0488889"
     inkscape:cx="-324.74204"
     inkscape:cy="204.74559"
     inkscape:window-x="0"
     inkscape:window-y="0"
     inkscape:window-maximized="1"
     inkscape:current-layer="svg6" />
  <g
     id="g818"
     transform="rotate(-18.436008,250.02976,250.01147)">
    <path
       d="m 397.72997,452.27106 c -11.55273,8.34424 -15.98002,-3.67769 -28.34508,3.42213 -12.36395,7.09761 -4.11613,16.92848 -17.15796,22.70167 -13.04405,5.77431 -14.86208,-6.90316 -28.44065,-2.5166 -13.57634,4.38878 -7.56439,15.71072 -21.52746,18.66621 -13.96417,2.95548 -13.09516,-9.82199 -27.29271,-8.34424 -14.19643,1.48885 -10.68149,13.81077 -24.95571,13.81077 -14.27422,0 -10.74595,-12.31081 -24.94794,-13.79966 -14.19088,-1.48886 -13.3352,11.29972 -27.29271,8.34424 -13.95751,-2.95549 -7.94556,-14.26632 -21.51412,-18.66621 -13.56857,-4.38878 -15.39105,8.28868 -28.43732,2.49994 -13.03516,-5.77764 -4.77845,-15.58851 -17.14684,-22.69945 -12.35729,-7.09983 -16.79124,4.93321 -28.3373,-3.43325 C 90.788104,443.91237 100.91174,436.01256 90.31026,426.50169 79.708775,417.00192 72.863372,427.8461 63.306479,417.2908 53.760698,406.74661 65.317871,401.0912 56.927808,389.6137 48.537744,378.12509 39.580935,387.31376 32.43549,375.01406 25.301158,362.71436 37.780683,359.59221 31.97987,346.61475 26.167946,333.63729 15.488673,340.77045 11.076944,327.25967 6.6652151,313.76 19.522571,313.28223 16.566601,299.39368 13.588407,285.49402 1.6422896,290.26057 0.1531922,276.1387 -1.3370164,262.0046 11.342537,264.20454 11.353649,250.00489 c 0,-14.1941 -12.6817753,-12.00415 -11.18378779,-26.13269 C 1.6656262,209.75476 13.610632,214.52354 16.572158,200.62832 19.53924,186.73977 6.6818841,186.262 11.093613,172.75678 c 4.411729,-13.51078 15.096558,-6.37762 20.90626,-19.34397 5.811925,-12.97746 -6.678713,-16.11072 0.466732,-28.41042 7.145445,-12.2997 16.102255,-3.11103 24.492318,-14.59964 8.380063,-11.496388 -3.177111,-17.140695 6.379782,-27.69377 9.556894,-10.553075 16.391184,0.293326 27.003781,-9.207553 10.601484,-9.49199 0.488958,-17.410685 12.035014,-25.747148 11.55051,-8.349796 15.98002,3.677688 28.33731,-3.422138 12.36061,-7.099827 4.11168,-16.93292 17.15795,-22.699446 13.03738,-5.783191 14.85764,6.899832 28.43732,2.51105 13.57968,-4.388781 7.56772,-15.708505 21.52523,-18.660655 13.96863,-2.948816 13.09406,9.82976 27.29271,8.344241 14.17977,-1.505519 10.66816,-13.821885 24.93683,-13.816329 14.282,0 10.75484,12.317477 24.95238,13.806329 14.20199,1.484408 13.33076,-11.294168 27.29827,-8.337574 13.95751,2.957706 7.93444,14.274096 21.51412,18.66621 13.56857,4.388782 15.39105,-8.28313 28.43732,-2.502161 13.03515,5.78097 4.78956,15.607397 17.14684,22.710556 12.35729,7.10316 16.79124,-4.91988 28.3373,3.429916 11.54606,8.348685 1.41131,16.251825 12.02391,25.757148 10.61259,9.499768 17.458,-1.344411 27.00378,9.221997 9.54578,10.555298 -2.01139,16.188493 6.37867,27.677097 8.39006,11.48861 17.34687,2.29995 24.49232,14.59965 7.13433,12.2997 -5.3452,15.42184 0.45562,28.3993 5.80081,12.96635 16.49119,5.8443 20.90292,19.35509 4.40062,13.49967 -8.46785,13.97743 -5.48965,27.86598 2.95597,13.88855 14.90208,9.122 16.39118,23.24388 1.4891,14.12187 -11.19046,11.92193 -11.20157,26.13269 0,14.19965 12.67955,11.99971 11.17934,26.1327 -1.50021,14.12187 -13.44632,9.34421 -16.4134,23.24387 -2.97375,13.88855 9.89027,14.36632 5.47298,27.86599 -4.41172,13.51078 -15.091,6.36651 -20.90292,19.34397 -5.81193,12.97746 6.6676,16.09961 -0.47229,28.3993 -7.13433,12.2997 -16.10226,3.11104 -24.49232,14.59076 -8.39006,11.48861 3.16711,17.13291 -6.39312,27.68154 -9.55689,10.5553 -16.40229,-0.28888 -27.01489,9.21311 -10.6126,9.49977 -0.48896,17.41069 -12.03502,25.75493 z"
       id="banner-bg"
       inkscape:connector-curvature="0" />
    <path
       d="m 414.14224,289.15767 h -5.17334 l 1.33334,34.77333 h 2.72 z m -5.54667,44.69333 c 0,1.81333 1.44,2.93333 2.98667,2.93333 1.86666,0 3.57333,-1.38667 3.57333,-3.46667 0,-1.54666 -0.90667,-2.93333 -3.04,-2.93333 -1.70667,0 -3.52,1.49333 -3.52,3.46667 z m -19.57667,2.93333 c 4.10667,0 8.42667,-1.70667 10.45334,-3.78667 l -0.85334,-1.97333 c -1.65333,1.44 -5.17333,2.72 -8.21333,2.72 -6.34667,0 -9.65333,-5.49333 -9.65333,-12.69333 h 18.98666 c 0.26667,-1.17334 0.32,-2.66667 0.32,-4.69334 -0.26666,-6.88 -3.94666,-10.56 -10.24,-10.56 -7.84,0 -13.65333,6.29334 -13.65333,15.46667 0,9.12 4.42667,15.52 12.85333,15.52 z m -8.21333,-18.24 c 0.48,-7.41333 3.68,-10.02667 7.94667,-10.02667 4.74666,0 6.61333,3.30667 6.66666,7.68 0,0.74667 -0.0533,1.6 -0.16,2.34667 z m -15.79832,-17.54666 h 0.0533 c 2.18667,0 3.41333,-1.33334 3.41333,-3.52 0,-1.49334 -0.64,-3.04 -2.98666,-3.04 -2.13334,0 -3.36,1.49333 -3.36,3.52 0,1.65333 0.69333,3.04 2.88,3.04 z m -1.70667,32.47999 -4.69333,0.42667 v 2.29333 h 13.65333 v -2.29333 l -4.64,-0.37333 v -26.72 l -1.06667,-0.85334 h -0.10666 l -7.30667,0.85334 v 2.4 l 4.16,0.90666 z m -35.965,0 -3.57334,0.42667 v 2.29333 h 11.78667 v -2.29333 l -3.89333,-0.42667 v -20.69333 c 2.18666,-1.70667 5.86666,-3.57333 8.90666,-3.57333 5.17334,0 6.02667,2.98666 6.02667,9.17333 V 333.531 l -3.57333,0.37333 v 2.29333 h 11.89333 v -2.29333 l -4,-0.37333 v -15.09334 c 0,-8.58666 -1.6,-12.53333 -8.53333,-12.53333 -4,0 -8.90667,2.56 -11.25334,4.58667 l 0.0533,-1.33334 V 306.811 l -1.01334,-0.85334 h -0.16 l -6.77333,0.85334 v 2.4 l 4.10667,0.90666 z m -14.41166,-32.47999 h 0.0533 c 2.18667,0 3.41334,-1.33334 3.41334,-3.52 0,-1.49334 -0.64,-3.04 -2.98667,-3.04 -2.13333,0 -3.36,1.49333 -3.36,3.52 0,1.65333 0.69333,3.04 2.88,3.04 z m -1.70667,32.47999 -4.69333,0.42667 v 2.29333 h 13.65333 v -2.29333 l -4.64,-0.37333 v -26.72 l -1.06666,-0.85334 h -0.10667 l -7.30667,0.85334 v 2.4 l 4.16,0.90666 z m -17.66,0 -4.69333,0.42667 v 2.29333 h 14.02667 v -2.29333 l -5.01334,-0.37333 v -40.32 l -1.01333,-0.69333 h -0.0533 l -7.78667,0.90666 v 1.97334 l 4.53333,0.48 z m -16.81334,3.30667 c 2.93334,0 7.41334,-1.54667 8.96,-2.72 l -0.69333,-2.02667 c -1.17333,0.58667 -4.16,1.33334 -6.34667,1.33334 -2.93333,0 -3.30666,-0.42667 -3.30666,-6.34667 v -17.28 h 9.44 v -3.14667 h -9.44 v -7.57333 h -2.45334 c -0.21333,0.96 -1.17333,4.90667 -1.65333,6.13334 -0.26667,0.85333 -0.58667,1.33333 -1.17333,1.65333 -0.42667,0.26666 -2.13334,0.64 -3.09334,0.85333 v 2.08 h 4.05334 V 330.811 c 0,4.69333 2.18666,5.97333 5.70666,5.97333 z m -37.12416,-3.30667 -3.52,0.42667 v 2.29333 h 11.94666 v -2.29333 l -4.10666,-0.42667 v -4.53333 l -0.10667,-2.72 5.97333,-5.86667 8.37334,13.12 -3.68,0.42667 v 2.29333 h 12.21333 v -2.29333 l -3.52,-0.37333 -10.61333,-15.57334 8.64,-8.48 4.10666,-0.74666 v -2.13334 h -12.26666 v 2.13334 l 4,0.74666 -13.22667,13.6 0.10667,-3.36 V 293.211 l -1.01334,-0.69333 h -0.0533 l -7.62667,0.90666 v 1.97334 l 4.37334,0.48 z m -12.155,3.2 c 1.86667,0 3.25333,-0.48 4.42667,-0.8 l 0.0533,-2.02666 h -3.30667 v -27.25334 l -1.22666,-0.64 h -0.0533 l -7.09333,0.69334 v 1.97333 l 4.05333,0.90667 v 20.58666 c -1.65333,1.44 -4.69333,3.41334 -8.16,3.41334 -4.96,0 -5.97333,-2.61334 -5.97333,-8.96 v -17.97334 l -0.96,-0.64 h -0.0533 l -6.45334,0.69334 v 1.97333 l 3.14667,0.90667 v 15.68 c 0,8.10666 2.4,11.57333 8.96,11.57333 3.94667,0 7.84,-2.50667 9.97333,-4.42667 v 2.08 c 0,1.81334 0.96,2.24 2.66667,2.24 z m -45.61,0.10667 c 4.32,0 7.52,-2.18667 9.38667,-4.26667 v 1.86667 c 0,2.08 0.8,2.29333 2.24,2.29333 2.02667,0 3.73333,-0.48 5.12,-0.8 v -2.08 h -3.25333 v -40.53333 l -1.01334,-0.74666 h -0.10666 l -8.74667,0.90666 v 1.92 l 5.54667,0.53334 v 10.55999 c -1.6,-0.37333 -3.57334,-0.64 -5.65334,-0.64 -9.38666,0 -15.2,7.2 -15.2,16.32 0,10.02667 5.6,14.66667 11.68,14.66667 z m 1.76,-3.36 c -4.74666,0 -8.85333,-3.41333 -8.74666,-12.05333 0.10666,-9.06667 4.42666,-12.90667 10.13333,-12.90667 2.72,0 5.44,0.85333 6.02667,1.81333 v 19.62667 c -1.17334,1.54667 -4.05334,3.52 -7.41334,3.52 z M 138.35059,321.211 c 0,8.37333 3.62666,15.57333 13.17333,15.57333 6.82667,0 13.70667,-5.70667 13.70667,-15.41333 0,-8.37334 -3.62667,-15.57334 -13.17334,-15.57334 -6.82666,0 -13.70666,5.70667 -13.70666,15.41334 z m 13.44,12.8 c -6.18667,0 -8.58667,-5.97334 -8.58667,-13.12 0,-8.16 3.2,-12.32 8.64,-12.32 6.24,0 8.53333,6.08 8.53333,13.12 0,8.10666 -3.2,12.32 -8.58666,12.32 z m -37.185,2.18666 h 15.68 V 334.011 l -7.09334,-0.42667 V 313.371 c 1.65334,-1.22667 4.53334,-3.14667 9.12,-3.14667 1.17334,0 2.24,0.32 2.45334,0.48 V 306.011 c -0.37334,-0.10667 -0.85334,-0.21334 -1.6,-0.21334 -5.86667,0 -9.86667,5.22667 -10.50667,5.92 h -0.10667 l 0.10667,-4.05333 V 306.811 l -1.01333,-0.85334 h -0.10667 l -6.77333,0.85334 v 2.4 l 4.10667,0.90666 v 23.52 l -4.26667,0.32 z m -29.366666,-2.77333 -4.586666,0.48 v 2.29333 h 16.373333 v -2.29333 L 89.612257,333.371 v -12.53334 c 0.48,0.10667 3.573334,0.21334 5.653334,0.21334 8.479999,0 15.253329,-5.01334 15.253329,-13.65334 0,-7.03999 -3.30666,-11.19999 -13.759996,-11.19999 -4.64,0 -5.813333,0.37333 -9.333333,0.37333 h -6.453333 v 2.29333 l 4.266666,0.58667 z m 4.373333,-15.2 v -19.14666 c 1.493334,0 3.253334,-0.32 5.813334,-0.32 7.039999,0 10.399999,2.29333 10.399999,8.63999 0,8.48 -5.06667,11.04 -10.453333,11.04 -2.666666,0 -4.746666,-0.0533 -5.76,-0.21333 z M 452.67976,270.11767 c 5.06666,0 9.92,-2.56 11.52,-4.32 l -1.49334,-3.25334 c -1.6,1.01334 -4.8,2.18667 -7.62666,2.18667 -4.74667,0 -7.30667,-3.25333 -7.68,-9.28 h 16.69333 c 0.32,-1.38667 0.48,-3.04 0.48,-5.49333 -0.16,-6.77334 -4.05333,-10.82667 -11.62666,-10.82667 -8.8,0 -14.61334,5.70667 -14.61334,15.57333 0,9.06667 4.16,15.41334 14.34667,15.41334 z M 447.34643,251.931 c 0.16,-7.46667 2.08,-9.12 4.8,-9.12 3.04,0 3.99999,2.72 3.99999,6.88 0,0.74667 -0.0533,1.49333 -0.0533,2.24 z m -42.315,13.6 -2.93334,0.48 v 3.52 h 14.77334 v -3.52 l -2.93334,-0.48 v -18.93333 c 1.22667,-0.90667 3.25334,-2.29334 5.54667,-2.29334 3.2,0 4,1.76 4,6.66667 v 14.56 l -2.61334,0.48 v 3.52 h 14.50667 v -3.57333 l -2.98667,-0.42667 v -14.61333 c 0,-8.48 -2.24,-11.62667 -8.53333,-11.62667 -4.48,0 -8.53333,2.13333 -10.77333,4.21333 l 0.0533,-1.22666 v -1.97334 l -1.38666,-1.12 h -0.16 l -9.70667,1.17334 v 4.16 l 3.14667,0.96 z m -18.81002,4.58667 c 5.06667,0 9.92,-2.56 11.52,-4.32 l -1.49333,-3.25334 c -1.6,1.01334 -4.8,2.18667 -7.62667,2.18667 -4.74666,0 -7.30666,-3.25333 -7.67999,-9.28 h 16.69333 c 0.32,-1.38667 0.48,-3.04 0.48,-5.49333 -0.16,-6.77334 -4.05334,-10.82667 -11.62667,-10.82667 -8.8,0 -14.61333,5.70667 -14.61333,15.57333 0,9.06667 4.16,15.41334 14.34666,15.41334 z M 380.88808,251.931 c 0.16,-7.46667 2.08,-9.12 4.8,-9.12 3.04,0 4,2.72 4,6.88 0,0.74667 -0.0533,1.49333 -0.0533,2.24 z m -28.89918,32 c 8.69334,0 17.28,-4.32 17.28,-11.68 0,-5.44 -3.84,-8.05333 -11.25333,-8.05333 h -5.49333 c -4.32,0 -5.70667,-0.69334 -5.70667,-2.88 0,-0.53334 0.26667,-1.6 0.69333,-2.45334 1.22667,0.26667 2.72,0.37334 4.32,0.37334 8.69334,0 13.33334,-4.26667 13.33334,-10.66667 0,-1.12 -0.21334,-2.13333 -0.53334,-3.04 h 5.28 v -6.50667 h -1.92 c -2.45333,0 -4.8,1.49334 -5.65333,2.56 -2.02667,-1.6 -5.17333,-2.45333 -9.76,-2.45333 -7.36,0 -13.54666,3.73333 -13.54666,9.97333 0,4.10667 1.6,7.46667 5.91999,9.06667 -2.61333,1.17333 -4.31999,3.52 -4.31999,5.81333 0,1.97334 0.74666,3.57334 2.50666,4.58667 -2.82666,1.22667 -5.06666,4.05333 -5.06666,6.93333 0,4.64 3.46666,8.42667 13.91999,8.42667 z m 0.37334,-28.32 c -3.25334,0 -4.58667,-2.45333 -4.58667,-6.72 0,-4.10667 1.49333,-6.29333 4.53333,-6.29333 2.98667,0 4.26667,1.97333 4.26667,6.50666 0,3.94667 -1.06667,6.50667 -4.21333,6.50667 z m 0.64,24.32 c -4.64,0 -6.34667,-2.4 -6.34667,-6.02667 0,-1.81333 0.42667,-3.14666 1.01333,-4.10666 0.53334,0.0533 1.22667,0.10666 1.92,0.10666 h 5.44 c 3.78667,0 5.06667,1.17334 5.06667,4.10667 0,4 -3.52,5.92 -7.09333,5.92 z m -26.63831,-44.64 h 0.0533 c 3.57333,0 5.49333,-2.18667 5.49333,-5.12 0,-2.4 -1.65333,-4.37333 -4.96,-4.37333 -3.25333,0 -5.22666,2.24 -5.22666,5.12 0,2.50666 1.81333,4.37333 4.64,4.37333 z m -3.25334,30.24 -3.30666,0.48 v 3.52 h 15.36 v -3.52 l -3.2,-0.48 v -25.22667 l -1.65334,-1.12 h -0.10666 l -10.66667,1.28 v 4 l 3.57333,1.01334 z m -19.07668,4.58667 c 5.06667,0 9.92,-2.56 11.52,-4.32 l -1.49333,-3.25334 c -1.6,1.01334 -4.8,2.18667 -7.62667,2.18667 -4.74666,0 -7.30666,-3.25333 -7.67999,-9.28 h 16.69333 c 0.32,-1.38667 0.48,-3.04 0.48,-5.49333 -0.16,-6.77334 -4.05334,-10.82667 -11.62667,-10.82667 -8.8,0 -14.61333,5.70667 -14.61333,15.57333 0,9.06667 4.16,15.41334 14.34666,15.41334 z M 298.70058,251.931 c 0.16,-7.46667 2.08,-9.12 4.8,-9.12 3.04,0 4,2.72 4,6.88 0,0.74667 -0.0533,1.49333 -0.0533,2.24 z m -43.75583,9.22667 h -2.88 v 6.72 c 1.70667,0.90666 6.29333,2.24 9.6,2.24 6.56,0 11.04,-3.14667 11.04,-8.48 0,-5.33334 -4.48,-7.25334 -9.22667,-9.12 -3.52,-1.49334 -7.04,-2.50667 -7.04,-6.56 0,-2.61334 2.45334,-4.26667 5.92,-4.21334 2.4,0 4.58667,0.74667 5.06667,1.65334 l 0.96,3.89333 h 2.61333 v -6.34667 c -1.12,-0.42666 -4,-1.65333 -8.21333,-1.65333 -5.54667,0 -10.34667,2.88 -10.34667,7.57333 0,4.85334 2.66667,7.41334 8.26667,9.38667 5.28,1.97333 8,3.41333 8,6.56 0,2.88 -1.76,4.8 -6.50667,4.8 -2.93333,0 -5.70666,-1.17333 -6.45333,-2.29333 z m -32.94083,0.58666 c 0,5.81334 4.16,8.37334 8.90666,8.37334 4.48,0 8,-3.14667 9.33333,-4.32 v 1.97333 c 0,2.08 0.69334,2.24 2.24,2.24 1.6,0 3.78667,-0.48 4.96,-0.8 v -1.97333 h -3.30666 v -17.6 c 0,-7.46667 -2.50667,-10.29334 -9.70667,-10.29334 -4.90666,0 -10.4,3.04 -11.36,3.94667 l 1.17334,2.34667 c 1.70666,-0.96 5.06666,-2.82667 9.22666,-2.82667 5.01333,0 6.4,2.02667 6.4,7.30667 v 1.65333 c -8.8,0.16 -17.86666,2.50667 -17.86666,9.97333 z m 10.50666,5.22667 c -3.25333,0 -5.76,-1.49333 -5.76,-5.76 0,-4.05333 4.26667,-6.88 13.12,-6.93333 v 9.44 c -2.13333,1.65333 -5.22667,3.25333 -7.36,3.25333 z m -32.00999,3.14667 c 4.32,0 7.52,-2.18667 9.38667,-4.26667 v 1.86667 c 0,2.08 0.8,2.29333 2.24,2.29333 2.02666,0 3.73333,-0.48 5.12,-0.8 v -2.08 h -3.25334 v -40.53333 l -1.01333,-0.74667 h -0.10667 l -8.74666,0.90667 v 1.92 l 5.54666,0.53333 v 10.56 c -1.6,-0.37333 -3.57333,-0.64 -5.65333,-0.64 -9.38666,0 -15.2,7.2 -15.2,16.32 0,10.02667 5.6,14.66667 11.68,14.66667 z m 1.76,-3.36 c -4.74666,0 -8.85333,-3.41334 -8.74666,-12.05334 0.10666,-9.06666 4.42666,-12.90666 10.13333,-12.90666 2.72,0 5.44,0.85333 6.02666,1.81333 v 19.62667 c -1.17333,1.54666 -4.05333,3.52 -7.41333,3.52 z m -44.925,0.0533 -3.57334,0.42667 v 2.29333 h 11.78667 v -2.29333 l -3.89333,-0.42667 v -20.69333 c 2.18666,-1.70667 5.86666,-3.57334 8.90666,-3.57334 5.17334,0 6.02667,2.98667 6.02667,9.17334 v 15.14666 l -3.57333,0.37334 v 2.29333 h 11.89333 v -2.29333 l -4,-0.37334 V 251.771 c 0,-8.58667 -1.6,-12.53333 -8.53333,-12.53333 -4,0 -8.90667,2.56 -11.25334,4.58666 l 0.0533,-1.33333 v -2.34667 l -1.01334,-0.85333 h -0.16 l -6.77333,0.85333 v 2.4 l 4.10667,0.90667 z m -14.41167,-32.48 h 0.0533 c 2.18666,0 3.41333,-1.33333 3.41333,-3.52 0,-1.49333 -0.64,-3.04 -2.98667,-3.04 -2.13333,0 -3.36,1.49333 -3.36,3.52 0,1.65333 0.69334,3.04 2.88,3.04 z m -1.70666,32.48 -4.69334,0.42667 v 2.29333 h 13.65334 v -2.29333 l -4.64,-0.37334 v -26.72 l -1.06667,-0.85333 h -0.10667 l -7.30666,0.85333 v 2.4 l 4.16,0.90667 z m -37.03501,-24.69333 2.50667,0.69333 10.77333,27.14667 h 3.57334 l 10.50666,-27.14667 2.72,-0.69333 V 239.931 h -10.18666 v 2.18667 l 3.73333,0.69333 -5.70667,16.10667 -2.24,7.30666 -2.61333,-7.57333 -5.70667,-15.84 3.94667,-0.69333 V 239.931 H 104.18225 Z M 74.704759,254.5443 c 0,8.37334 3.626666,15.57334 13.173333,15.57334 6.826666,0 13.706668,-5.70667 13.706668,-15.41334 0,-8.37333 -3.626668,-15.57333 -13.173335,-15.57333 -6.826666,0 -13.706666,5.70667 -13.706666,15.41333 z m 13.439999,12.8 c -6.186666,0 -8.586666,-5.97333 -8.586666,-13.12 0,-8.16 3.2,-12.32 8.64,-12.32 6.24,0 8.533333,6.08 8.533333,13.12 0,8.10667 -3.2,12.32 -8.586667,12.32 z m -34.308333,2.77334 c 7.146666,0 11.306666,-2.61334 14.133333,-2.72 V 252.9443 l 3.253333,-0.53333 V 249.5843 H 56.076425 v 2.82667 l 7.413333,0.53333 v 12.16 c -1.92,1.49334 -5.546666,2.45334 -9.333333,2.45334 -9.28,0 -13.653333,-9.17334 -13.653333,-18.56 0,-11.25334 6.24,-16.96 14.506666,-16.96 5.013333,0 7.36,1.17333 8.16,1.81333 l 1.173333,6.13333 h 2.773334 l 0.426666,-8.85333 c -1.813333,-0.42667 -6.56,-1.65333 -12.053333,-1.65333 -11.146666,0 -19.999999,7.52 -19.999999,20.90666 0,11.25334 6.773333,19.73334 18.346666,19.73334 z M 374.54475,181.26433 c 1.76,0 3.41333,-1.44 3.41333,-3.52 0,-1.54666 -0.85333,-2.98666 -2.88,-2.98666 -1.76,0 -3.46666,1.49333 -3.46666,3.52 0,1.81333 1.33333,2.98666 2.93333,2.98666 z m 0,22.18667 c 1.76,0 3.41333,-1.44 3.41333,-3.52 0,-1.54667 -0.85333,-2.98667 -2.88,-2.98667 -1.76,0 -3.46666,1.49334 -3.46666,3.52 0,1.81334 1.33333,2.98667 2.93333,2.98667 z m -28.06833,-0.16 c 8.10666,0 14.13333,-5.12 14.13333,-16.69333 v -20.48 l 4.05333,-0.58667 v -2.29333 h -11.84 v 2.29333 l 4.42667,0.64 v 20.64 c 0,9.06667 -3.52,13.86667 -10.34667,13.86667 -6.24,0 -10.72,-3.25334 -10.72,-14.29334 v -20.26666 l 4.58667,-0.58667 v -2.29333 h -13.06666 v 2.29333 l 3.99999,0.58667 v 19.78666 c 0,11.78667 4.48,17.38667 14.77334,17.38667 z m -47.54333,-3.2 -4.58667,0.48 v 2.29333 h 28.90667 l 1.65333,-9.01333 -2.56,-0.8 -2.72,6.66667 -16.32,0.42666 v -16.42666 l 9.81334,0.16 0.69333,4.53333 h 2.66667 v -11.78667 h -2.66667 l -0.69333,4.42667 -9.81334,0.16 v -15.52 l 14.29334,0.26667 1.44,5.12 h 2.56 l -0.74667,-7.84 h -26.4 v 2.29333 l 4.48,0.58667 z m -42.5,-0.0533 -4.26667,0.53333 v 2.29333 h 12.21334 V 200.571 l -4.85334,-0.48 v -31.78667 l 4.37334,7.09334 19.09333,27.46666 h 2.77333 v -36.74666 l 4.37334,-0.58667 v -2.29333 h -12.16 v 2.29333 l 4.69333,0.58667 V 195.931 l -3.04,-5.33333 -18.88,-27.36 h -8.58667 v 2.29333 l 4.26667,0.58667 z m -29.8975,3.41333 c 2.93333,0 7.41333,-1.54667 8.96,-2.72 l -0.69334,-2.02667 c -1.17333,0.58667 -4.16,1.33334 -6.34666,1.33334 -2.93334,0 -3.30667,-0.42667 -3.30667,-6.34667 v -17.28 h 9.44 v -3.14667 h -9.44 V 165.691 h -2.45333 c -0.21334,0.96 -1.17334,4.90667 -1.65334,6.13333 -0.26666,0.85334 -0.58666,1.33334 -1.17333,1.65334 -0.42667,0.26666 -2.13333,0.64 -3.09333,0.85333 v 2.08 h 4.05333 v 21.06667 c 0,4.69333 2.18667,5.97333 5.70667,5.97333 z m -19.02834,-27.41333 -3.30666,3.09333 -16.8,21.70667 0.96,2.02666 h 23.41333 l 1.01333,-8.69333 -2.72,-0.32 -2.08,5.81333 -15.78666,0.48 3.62666,-3.04 16.58667,-21.86666 -0.90667,-1.97334 h -22.18666 v 8.16 h 2.93333 l 0.74667,-5.01333 z m -32.01333,27.4133 c 2.93334,0 7.41334,-1.54667 8.96,-2.72 l -0.69333,-2.02667 c -1.17333,0.58667 -4.16,1.33334 -6.34667,1.33334 -2.93333,0 -3.30666,-0.42667 -3.30666,-6.34667 v -17.28 h 9.44 v -3.14667 h -9.44 V 165.691 h -2.45334 c -0.21333,0.96 -1.17333,4.90667 -1.65333,6.13333 -0.26667,0.85334 -0.58667,1.33334 -1.17333,1.65334 -0.42667,0.26666 -2.13334,0.64 -3.09334,0.85333 v 2.08 h 4.05334 v 21.06667 c 0,4.69333 2.18666,5.97333 5.70666,5.97333 z m -25.01666,0 c 4.10666,0 8.42666,-1.70667 10.45333,-3.78667 l -0.85333,-1.97333 c -1.65334,1.44 -5.17334,2.72 -8.21334,2.72 -6.34666,0 -9.65333,-5.49333 -9.65333,-12.69333 h 18.98667 c 0.26666,-1.17334 0.32,-2.66667 0.32,-4.69334 -0.26667,-6.88 -3.94667,-10.56 -10.24,-10.56 -7.84,0 -13.65334,6.29334 -13.65334,15.46667 0,9.12 4.42667,15.52 12.85334,15.52 z m -8.21334,-18.24 c 0.48,-7.41333 3.68,-10.02667 7.94667,-10.02667 4.74667,0 6.61333,3.30667 6.66667,7.68 0,0.74667 -0.0533,1.6 -0.16,2.34667 z m -27.2,24.96 1.17334,1.92 c 4.58666,-0.85333 9.65333,-4.21333 10.88,-10.34667 0.64,-3.30666 0.53333,-7.62666 0.53333,-13.54666 V 166.171 l 5.12,-0.64 v -2.29333 h -14.88 v 2.29333 l 5.33333,0.64 v 23.2 c 0,7.94667 -0.10666,10.93333 -1.06666,13.97333 -1.12,3.57334 -3.94667,5.97334 -7.09334,6.82667 z"
       id="banner-text"
       inkscape:connector-curvature="0"
       style="fill:#ffffff" />
  </g>
</svg>
