<svg
   xmlns:dc="http://purl.org/dc/elements/1.1/"
   xmlns:cc="http://creativecommons.org/ns#"
   xmlns:rdf="http://www.w3.org/1999/02/22-rdf-syntax-ns#"
   xmlns:svg="http://www.w3.org/2000/svg"
   xmlns="http://www.w3.org/2000/svg"
   xmlns:sodipodi="http://sodipodi.sourceforge.net/DTD/sodipodi-0.dtd"
   xmlns:inkscape="http://www.inkscape.org/namespaces/inkscape"
   version="1.1"
   width="26"
   height="26"
   viewBox="0 0 26 26"
   id="svg6"
   sodipodi:docname="facebook.svg"
   inkscape:version="0.92+devel unknown">

  <path
     fill="currentColor" d="M 14.5,8 H 17 V 5 H 14.5 C 12.57,5 11,6.57 11,8.5 V 10 H 9 v 3 h 2 v 8 h 3 v -8 h 2.5 L 17,10 H 14 V 8.5 C 14,8.229 14.229,8 14.5,8 Z M 26,13 A 13,13 0 0 1 13,26 13,13 0 0 1 0,13 13,13 0 0 1 13,0 13,13 0 0 1 26,13 Z" />
</svg>
