<?xml version="1.0" encoding="UTF-8" standalone="no"?>
<svg
   xmlns:dc="http://purl.org/dc/elements/1.1/"
   xmlns:cc="http://creativecommons.org/ns#"
   xmlns:rdf="http://www.w3.org/1999/02/22-rdf-syntax-ns#"
   xmlns:svg="http://www.w3.org/2000/svg"
   xmlns="http://www.w3.org/2000/svg"
   xmlns:sodipodi="http://sodipodi.sourceforge.net/DTD/sodipodi-0.dtd"
   xmlns:inkscape="http://www.inkscape.org/namespaces/inkscape"
   viewBox="0 0 500 500"
   version="1.1"
   id="svg6"
   sodipodi:docname="facebook-big.svg"
   inkscape:version="0.92.2 (5c3e80d, 2017-08-06)">
  <metadata
     id="metadata12">
    <rdf:RDF>
      <cc:Work
         rdf:about="">
        <dc:format>image/svg+xml</dc:format>
        <dc:type
           rdf:resource="http://purl.org/dc/dcmitype/StillImage" />
        <dc:title></dc:title>
      </cc:Work>
    </rdf:RDF>
  </metadata>
  <defs
     id="defs10" />
  <sodipodi:namedview
     pagecolor="#ffffff"
     bordercolor="#666666"
     borderopacity="1"
     objecttolerance="10"
     gridtolerance="10"
     guidetolerance="10"
     inkscape:pageopacity="0"
     inkscape:pageshadow="2"
     inkscape:window-width="2560"
     inkscape:window-height="1403"
     id="namedview8"
     showgrid="false"
     inkscape:zoom="1.0488889"
     inkscape:cx="-268.96185"
     inkscape:cy="204.74559"
     inkscape:window-x="0"
     inkscape:window-y="0"
     inkscape:window-maximized="1"
     inkscape:current-layer="svg6" />
  <path
     id="path821"
     style="stroke-width:18.75"
     d="m 278.14801,156.26275 h 46.875 v -56.25 h -46.875 c -36.1875,0 -65.625,29.4375 -65.625,65.625 v 28.125 h -37.5 v 56.25 h 37.5 v 150 h 56.25 v -150 h 46.875 l 9.375,-56.25 h -56.25 v -28.125 c 0,-5.08125 4.29375,-9.375 9.375,-9.375 z m 175.96525,238.91833 c -8.32098,11.56949 -16.32293,1.56467 -25.8081,12.2105 -9.48482,10.64338 1.44867,17.36137 -9.09807,26.96269 -10.5485,9.60307 -16.28242,-1.84881 -27.77687,6.60678 -11.49164,8.45699 -2.20773,17.29661 -14.51952,24.51617 -12.31283,7.2199 -15.52924,-5.17662 -28.5308,0.7152 -12.99699,5.90199 -5.7657,16.47993 -19.30733,20.99409 -13.54163,4.51415 -14.08768,-8.28063 -28.03162,-5.20176 -13.93342,3.07535 -9.07733,14.93699 -23.25316,16.54719 -14.17583,1.61019 -12.04943,-11.02139 -26.31306,-10.90448 -14.26013,0.12746 -11.97988,12.73063 -26.18725,11.36481 -14.19331,-1.35881 -9.463,-13.27731 -23.44541,-16.11185 -13.96837,-2.82751 -14.36937,9.99018 -27.96871,5.70449 -13.59232,-4.2646 -6.48653,-14.96053 -19.55169,-20.63061 -13.06164,-5.65954 -16.1263,6.79291 -28.53077,-0.19834 -12.39042,-6.98423 -3.21489,-16.00429 -14.80406,-24.23942 -11.592682,-8.24566 -17.183931,3.30397 -27.852376,-6.10477 -10.657902,-9.41224 0.193777,-16.32075 -9.413384,-26.79769 -9.617702,-10.47343 -17.49306,-0.32909 -25.951088,-11.75128 -8.454515,-11.41164 3.591876,-15.93097 -3.604575,-28.17191 -7.221048,-12.24446 -17.046661,-3.94464 -22.925309,-16.87082 -5.88357,-12.93743 6.840957,-14.86024 2.360926,-28.33464 C 19.112217,312.0198 7.7738639,318.10791 4.7268865,304.23075 1.6813109,290.36483 14.521373,291.11131 12.936608,276.99266 11.359223,262.87858 -0.98935336,266.49141 -1.075008,252.28412 -1.1624209,238.07156 11.229864,241.4596 12.64085,227.32143 14.050431,213.17201 1.2099658,214.14966 4.098966,200.2215 c 2.8890002,-13.92816 14.291998,-8.04363 18.618242,-21.59593 4.314298,-13.55652 -8.434718,-15.25624 -2.705669,-28.29003 5.729049,-13.03379 15.64271,-4.90536 22.706033,-17.27482 7.055591,-12.3575 -5.042184,-16.67175 3.274931,-28.23175 C 54.309628,93.254909 62.31544,103.2643 71.793235,92.620921 81.27418,81.97649 70.338937,75.256742 80.892003,65.660347 c 10.539361,-9.609393 16.277147,1.847056 27.771947,-6.610992 11.49481,-8.458048 2.21159,-17.295561 14.51916,-24.510196 12.31918,-7.214989 15.53066,5.184337 28.53081,-0.715198 12.97591,-5.912537 5.74953,-16.486266 19.28766,-20.993395 13.54901,-4.5166155 14.09821,8.284145 28.03794,5.20668 13.94255,-3.083088 9.07487,-14.9303128 23.26054,-16.5426181 14.17653,-1.60808804 12.04134,11.0322831 26.31306,10.9044731 14.26013,-0.127458 11.98164,-12.72536596 26.18655,-11.3669126 14.19435,1.3619709 9.47951,13.2917096 23.44892,16.1223846 13.96943,2.830673 14.37359,-9.9775299 27.96766,-5.707654 13.59371,4.268822 6.47844,14.97142 19.55239,20.632721 13.07218,5.656034 16.13684,-6.796423 28.53429,0.208882 12.39393,6.994765 3.21137,15.993751 14.80405,24.239413 11.59268,8.245668 17.18393,-3.303955 27.85238,6.104778 10.6579,9.412249 -0.19379,16.320746 9.41338,26.797687 9.60365,10.466405 17.49305,0.329095 25.95109,11.75129 8.44397,11.41515 -3.61296,15.93799 3.60458,28.1719 7.19645,12.24094 17.02205,3.94112 22.90071,16.86731 5.87865,12.92618 -6.84589,14.849 -2.36234,28.33394 4.49057,13.47089 15.82365,7.37401 18.86993,21.25609 3.04276,13.87153 -9.80116,13.11698 -8.22026,27.24159 1.57106,14.11619 13.92596,10.50126 14.00458,24.70504 0.0874,14.21256 -12.30311,10.81222 -13.71268,24.96164 -1.40959,14.14941 11.41682,13.16474 8.53309,27.09113 -2.87846,13.92465 -14.292,8.04364 -18.62105,21.58751 -4.32624,13.5523 8.42277,15.25202 2.68915,28.28264 -5.72835,13.0359 -15.65184,4.9131 -22.71482,17.28361 -7.06368,12.3684 5.04218,16.67176 -3.27248,28.23914 z" />
</svg>
