<svg width="35" height="35" viewBox="0 0 450 450" xmlns="http://www.w3.org/2000/svg">
  <path fill="currentColor" d="M357.91 407.044c-10.396 7.51-14.38-3.31-25.507 3.08-11.126 6.388-3.704 15.236-15.44 20.432-11.738 5.197-13.374-6.213-25.593-2.265-12.217 3.95-6.807 14.14-19.372 16.8-12.566 2.66-11.784-8.84-24.56-7.51-12.775 1.34-9.612 12.43-22.457 12.43s-9.67-11.08-22.45-12.42c-12.77-1.34-12 10.17-24.56 7.51-12.56-2.66-7.15-12.84-19.36-16.8-12.21-3.95-13.85 7.46-25.59 2.25-11.73-5.2-4.3-14.03-15.43-20.43-11.12-6.39-15.11 4.44-25.5-3.09-10.39-7.51-1.28-14.62-10.82-23.18-9.54-8.55-15.7 1.21-24.3-8.29-8.59-9.49 1.81-14.58-5.74-24.91-7.55-10.34-15.61-2.07-22.04-13.14-6.42-11.07 4.81-13.88-.41-25.56-5.23-11.68-14.84-5.26-18.81-17.42-3.97-12.15 7.6-12.58 4.94-25.08-2.68-12.51-13.43-8.22-14.77-20.93C-1.2 235.8 10.21 237.78 10.22 225c0-12.775-11.412-10.804-10.064-23.52 1.346-12.706 12.095-8.414 14.76-20.92 2.67-12.5-8.9-12.93-4.93-25.085 3.97-12.16 13.585-5.74 18.813-17.41 5.23-11.68-6.01-14.5.42-25.57s14.49-2.8 22.04-13.14C58.8 89.008 48.4 83.928 57 74.43s14.75.264 24.3-8.287c9.54-8.543.44-15.67 10.83-23.173 10.394-7.515 14.38 3.31 25.5-3.08 11.123-6.39 3.7-15.24 15.44-20.43 11.732-5.205 13.37 6.21 25.59 2.26s6.81-14.138 19.37-16.795c12.57-2.654 11.783 8.847 24.56 7.51C215.35 11.08 212.19-.005 225.03 0c12.852 0 9.678 11.086 22.454 12.426 12.78 1.336 11.996-10.165 24.565-7.504 12.56 2.662 7.14 12.847 19.36 16.8 12.21 3.95 13.85-7.455 25.59-2.252 11.73 5.203 4.31 14.047 15.43 20.44 11.12 6.393 15.11-4.428 25.5 3.087 10.39 7.514 1.27 14.627 10.82 23.182 9.55 8.55 15.71-1.21 24.3 8.3 8.59 9.5-1.81 14.57 5.74 24.91 7.55 10.34 15.61 2.07 22.04 13.14 6.42 11.07-4.81 13.88.41 25.56 5.22 11.67 14.84 5.26 18.81 17.42 3.96 12.15-7.62 12.58-4.94 25.08 2.66 12.5 13.41 8.21 14.75 20.92 1.34 12.71-10.07 10.73-10.08 23.52 0 12.78 11.41 10.8 10.06 23.52-1.35 12.71-12.1 8.41-14.77 20.92-2.676 12.5 8.9 12.93 4.925 25.08-3.97 12.16-13.58 5.73-18.81 17.41-5.23 11.68 6 14.49-.425 25.56-6.42 11.07-14.49 2.8-22.04 13.132-7.55 10.34 2.85 15.42-5.753 24.914-8.6 9.5-14.76-.26-24.31 8.292-9.55 8.55-.44 15.67-10.83 23.18z"/>
  <path fill="#fff" d="M248.854 383V242.506h47.173l7.064-54.753h-54.23v-34.956c0-15.852 4.41-26.655 27.14-26.655l29-.012V77.16c-5.01-.668-22.23-2.16-42.26-2.16-41.81 0-70.44 25.517-70.44 72.375v40.37H145v54.748h47.293V383h56.562z"/>
</svg>
