<?xml version="1.0" encoding="UTF-8" standalone="no"?>
<svg
   xmlns:svg="http://www.w3.org/2000/svg"
   xmlns="http://www.w3.org/2000/svg"
   xmlns:sodipodi="http://sodipodi.sourceforge.net/DTD/sodipodi-0.dtd"
   xmlns:inkscape="http://www.inkscape.org/namespaces/inkscape"
   width="300"
   height="140"
   viewBox="0 0 300 140"
   version="1.2"
   id="svg34"
   sodipodi:docname="govinda.svg"
   inkscape:version="0.92.2 (5c3e80d, 2017-08-06)"
   inkscape:export-filename="/home/fedora-user/Documents/projects/clients/govinda-leipzig.de/workbench/logo/logo-links.png"
   inkscape:export-xdpi="96"
   inkscape:export-ydpi="96">
  <sodipodi:namedview
     pagecolor="#ffffff"
     bordercolor="#666666"
     borderopacity="1"
     objecttolerance="10"
     gridtolerance="10"
     guidetolerance="10"
     inkscape:pageopacity="0"
     inkscape:pageshadow="2"
     inkscape:window-width="1920"
     inkscape:window-height="1016"
     id="namedview36"
     showgrid="false"
     inkscape:zoom="1.9901069"
     inkscape:cx="160.64311"
     inkscape:cy="-34.172217"
     inkscape:window-x="2560"
     inkscape:window-y="807"
     inkscape:window-maximized="1"
     inkscape:current-layer="svg34"
     units="px" />
  <defs
     id="defs5">
    <clipPath
       id="clip1">
      <path
         d="m 225,52 h 35.78906 V 95 H 225 Z m 0,0"
         id="path2"
         inkscape:connector-curvature="0" />
    </clipPath>
  </defs>
  <g
     id="g858"
     transform="matrix(1.1571493,0,0,1.1571493,-0.94470263,-0.722599)">
    <path
       d="m 161.76172,1.230469 c -33.09375,-1.96875 -52.83594,17.90625 -38.13281,43.871093 27.65234,10.855469 44.91406,-11.179687 38.13281,-43.871093"
       id="path23"
       inkscape:connector-curvature="0"
       style="fill:#f58a0f" />
    <path
       inkscape:connector-curvature="0"
       style="fill:#cf5e11"
       d="M 155.33594,8.632812 C 128.85547,6.3125 112.78906,22.476562 125.125,43.386719 147.46484,52.621094 161.5,34.691406 155.33594,8.632812"
       id="path25" />
    <path
       inkscape:connector-curvature="0"
       style="fill:#9ca305"
       d="m 133.53516,43.019531 c 6.89843,1.53125 13.83593,-2.851562 15.5,-9.800781 1.66015,-6.945312 -2.58204,-13.820312 -9.48047,-15.355469 -6.89844,-1.535156 -13.83594,2.855469 -15.5,9.800781 -1.66016,6.945313 2.58594,13.820313 9.48047,15.355469"
       id="path27" />
    <path
       inkscape:connector-curvature="0"
       style="fill:#ba2317"
       d="m 141.05469,25.042969 c -12.94532,-2.710938 -19.04297,8.367187 -12.6836,14.09375 6.20703,5.589843 16.71094,-1.714844 12.6836,-14.09375"
       id="path29" />
  </g>
  <path
     id="path885"
     style="fill:#789417"
     d="M 52.370048,75.206284 H 27.880067 l 1.356034,2.811511 7.354227,3.57993 -0.967305,18.297424 -1.450957,1.645321 c -0.967304,0.57858 -2.806991,1.25659 -5.13033,1.25659 -11.716137,0 -16.069006,-7.259302 -16.069006,-21.777909 0,-21.588067 6.676209,-33.498569 18.487268,-33.498569 2.228417,0 4.551755,0.678018 5.613982,1.356035 l 1.356035,1.744764 3.19572,8.321531 5.613982,2.617146 0.967304,-10.165738 1.161671,-6.486363 C 41.625735,43.457 36.495406,43.163192 31.749285,43.163192 10.549949,43.163192 1.0014158e-6,60.687675 1.0014158e-6,81.597725 1.0014158e-6,98.73348 9.7770089,107.92739 23.328311,107.92739 c 5.613983,0 13.262017,-0.18984 24.783788,-3.29064 l -0.483652,-4.935966 1.16167,-19.169806 3.485009,-3.001356 0.09492,-2.323338 m 30.980866,3.390085 c 0,5.613983 -0.488173,15.874642 -3.485008,22.071721 h -3.778817 c -6.291999,0 -7.54859,-3.385568 -7.54859,-11.811061 0,-6.775651 0.678016,-15.196625 3.57993,-21.488624 h 3.584451 c 6.192557,0 7.648034,3.774296 7.648034,11.227964 m 10.744311,-1.256591 c 0,-13.167094 -4.841041,-17.135754 -15.00678,-17.135754 -12.873286,0 -21.294258,13.745668 -21.294258,30.108482 0,12.195274 3.869218,17.908694 14.518608,17.908694 12.100346,0 21.78243,-12.100347 21.78243,-30.881422 z m 41.820107,-6.391442 c 0,-4.063583 -0.19437,-8.615338 -0.38874,-10.455025 h -3.96866 c -3.87373,0 -8.52041,3.390086 -8.52041,8.714781 v 1.062226 l 4.74611,-0.678017 0.48366,0.483653 c 0.0949,0.678017 0.57857,1.839687 0.57857,4.940485 0,8.515895 -2.12897,23.522675 -12.00542,24.684345 l -2.12897,-1.450957 c -0.57858,-2.422781 -0.57858,-4.262468 -0.57858,-6.875094 0,-2.223896 0,-4.257948 0.19437,-6.680729 l 1.54588,-24.200693 h -6.09764 c -5.61398,0 -10.744311,2.906433 -11.616694,10.360103 l 6.097634,-0.678018 0.0994,2.223896 -1.06674,21.203857 c 0,0.77294 -0.0949,1.356035 -0.0949,2.029532 0,8.520419 4.35739,12.005419 10.35558,12.005419 14.81241,0 22.36553,-22.361002 22.36553,-36.689764 m 26.32968,26.817839 -5.03541,0.772939 -0.57857,-0.967305 1.25659,-23.911405 1.26111,-13.167093 H 153.146 c -7.06494,0 -11.22796,3.584451 -12.10035,10.360103 l 5.61398,-0.678018 0.48365,0.483652 c 0.28929,1.450957 0.0949,2.901913 0,5.708905 l -1.55039,31.270147 h 5.32469 c 5.80835,0 11.23248,-3.29064 11.32741,-9.871925 m 48.1121,0 -5.41963,0.772939 -0.28928,-0.38873 1.64532,-31.848726 c 0.18985,-3.679372 -2.42278,-6.386921 -6.39144,-6.386921 -6.00271,0 -11.03812,4.063582 -15.68028,11.517251 l -0.19436,-0.194365 0.67802,-10.744312 h -5.32469 c -6.39145,0 -10.93869,2.906433 -12.10035,10.360103 l 6.09763,-0.678018 0.28929,0.384209 -1.83969,36.305555 h 11.32741 c -0.28928,-4.45231 -0.38873,-8.520411 -0.38873,-8.520411 l 1.16166,-23.522675 9.10352,-5.130331 2.02953,1.54588 c 0.19437,3.679374 0.38873,3.584451 0.19437,6.780172 l -1.55041,29.620305 h 5.32471 c 5.90777,0 11.13303,-3.19572 11.3274,-9.871925 m 29.91411,-29.819195 -1.45096,27.107126 -11.3274,4.741601 c -0.96731,-1.93461 -1.74476,-5.90327 -1.74476,-9.677566 0,-9.198432 3.29517,-17.135754 7.45367,-22.171161 h 7.06945 m 11.32741,-14.034955 c 0.38421,-6.486365 0.48365,-8.615339 1.54588,-15.101704 l -1.35603,-1.455476 -16.94139,3.195721 6.68073,8.036763 -0.77294,12.389634 c -0.48366,-0.194364 -2.12897,-0.289288 -3.09628,-0.289288 -8.90915,0 -22.75425,11.81106 -22.75425,30.203406 0,15.101699 5.71342,17.330119 9.29787,17.330119 3.96866,0 9.87193,-3.87374 14.03496,-9.777008 l 0.38873,0.189845 -0.48366,9.004063 h 5.51906 c 5.22525,0 11.03359,-3.29064 11.13304,-9.871925 l -5.22977,0.772939 -0.48365,-0.483652 z m 33.87826,14.034955 -1.45096,27.107126 -11.3274,4.741601 c -0.96731,-1.93461 -1.74025,-5.90327 -1.74025,-9.677566 0,-9.198432 3.29064,-17.135754 7.45367,-22.171161 h 7.06494 m 10.3601,5.713424 c 0.28929,-4.646677 0.38873,-6.970017 1.83969,-13.167093 -13.06765,0 -19.74838,0.678017 -25.17252,4.646678 -6.87057,5.035407 -12.38963,14.712972 -12.38963,26.040379 0,11.811062 4.06358,17.040832 9.19843,17.040832 3.48501,0 9.48773,-3.00136 14.1344,-9.777008 l 0.38421,0.189845 -0.48366,9.004063 h 5.32471 c 5.22977,0 11.03811,-2.5177 11.3274,-9.871925 l -5.22977,0.772939 -0.48366,-0.483652 z" />
  <path
     id="path1011"
     style="font-style:normal;font-variant:normal;font-weight:normal;font-stretch:normal;font-size:19.95812798px;line-height:1.25;font-family:Quadraat-Regular;-inkscape-font-specification:Quadraat-Regular;letter-spacing:0px;word-spacing:0px;fill:#789417;fill-opacity:1;stroke:none;stroke-width:0.93553728"
     d="m 300,138.32246 v -0.41912 c -1.39707,-0.33928 -1.65653,-0.69853 -1.65653,-2.19539 v -7.56413 c 0,-1.49686 0.25946,-1.85611 1.65653,-2.21535 v -0.39917 h -4.69016 v 0.39917 c 1.17752,0.41912 1.37711,0.79832 1.37711,2.4748 v 2.61452 l -0.41912,0.27941 h -6.18702 v -3.15338 c 0,-1.49686 0.27941,-1.85611 1.65652,-2.21535 v -0.39917 h -4.69016 v 0.39917 c 1.17753,0.41912 1.37711,0.79832 1.37711,2.4748 v 7.30468 c 0,1.53678 -0.29937,1.89602 -1.77627,2.19539 v 0.41912 h 5.08932 v -0.41912 c -1.37711,-0.33928 -1.65652,-0.69853 -1.65652,-2.19539 v -3.31305 l 0.41912,-0.25946 h 6.18702 v 3.57251 c 0,1.53678 -0.29938,1.89602 -1.79624,2.19539 v 0.41912 z m -14.85448,-3.85191 -0.41912,-0.13971 c -1.33719,2.41493 -2.47481,3.37292 -4.01158,3.37292 -2.3351,0 -4.11138,-2.61451 -4.11138,-6.06727 0,-3.27313 1.65653,-5.56832 4.01159,-5.56832 0.81828,0 1.71639,0.33929 2.17543,0.83824 0.49895,0.51892 0.97795,1.35716 1.37711,2.47481 l 0.41912,-0.1397 v -3.03364 c -1.61661,-0.77837 -2.3351,-0.95799 -3.67229,-0.95799 -3.75213,0 -6.3866,2.73426 -6.3866,6.64606 0,2.05568 0.81828,3.99162 2.21535,5.32882 1.03782,0.97795 2.19539,1.37711 4.11137,1.37711 1.25737,0 1.89603,-0.0998 3.45276,-0.55883 z m -12.39586,0.71849 c 0,-0.87816 -0.29937,-1.69644 -0.81828,-2.23531 -0.27941,-0.29937 -0.69854,-0.6187 -1.2374,-0.95799 -2.11557,-1.37711 -2.65444,-1.77628 -3.17335,-2.3351 -0.41912,-0.479 -0.67857,-1.17753 -0.67857,-1.73636 0,-1.11766 0.81828,-1.91598 1.91598,-1.91598 0.91807,0 1.73635,0.49895 2.39497,1.4769 0.27942,0.43908 0.59875,0.95799 0.91808,1.53678 l 0.41912,-0.19958 -0.41912,-2.89393 c -1.37711,-0.53887 -2.01578,-0.67858 -2.87397,-0.67858 -2.23531,0 -3.73217,1.41703 -3.73217,3.49267 0,1.0977 0.29937,1.79623 1.09769,2.55464 0.67858,0.65862 1.29728,1.11766 3.03364,2.27523 1.15757,0.77837 1.51682,1.27732 1.51682,2.11556 0,1.19749 -0.95799,2.15548 -2.11557,2.15548 -0.69853,0 -1.51681,-0.41912 -2.15547,-1.0977 -0.57879,-0.6187 -0.87816,-1.15757 -1.37711,-2.47481 l -0.41913,0.19959 0.27942,3.29309 c 1.63657,0.65861 2.37502,0.83824 3.45275,0.83824 2.31515,0 3.97167,-1.43699 3.97167,-3.41284 z m -9.18885,3.13342 v -0.41912 c -1.59665,-0.23949 -1.93594,-0.6187 -1.93594,-2.19539 v -7.56413 c 0,-1.57669 0.33929,-1.9559 1.93594,-2.21535 v -0.39917 h -5.36873 v 0.39917 c 1.4769,0.29937 1.77627,0.67857 1.77627,2.21535 v 7.56413 c 0,1.57669 -0.31933,1.9559 -1.91598,2.19539 v 0.41912 z m -4.51336,0.95799 v -0.33928 c -0.9979,-0.0798 -1.39707,-0.19959 -1.93594,-0.55883 -0.25945,-0.17962 -0.49895,-0.35925 -0.67857,-0.53887 -0.73845,-0.73845 -1.63657,-1.9559 -3.99163,-5.44857 1.05778,-1.01786 1.43699,-1.4769 1.77628,-2.19539 0.27941,-0.55883 0.41912,-1.19749 0.41912,-1.81619 0,-1.79624 -1.31724,-2.99372 -3.23322,-2.99372 -0.69853,0 -1.03782,0.0399 -2.41493,0.27941 l -3.03364,-0.21954 v 0.41912 c 1.35715,0.53887 1.65653,0.99791 1.65653,2.53468 v 7.30468 c 0,1.57669 -0.31933,1.9559 -1.91598,2.19539 v 0.41912 h 5.50844 v -0.41912 c -1.59665,-0.23949 -1.93594,-0.6187 -1.93594,-2.19539 v -2.8141 c 0.35925,0.0399 0.63866,0.0599 0.81828,0.0599 0.19958,0 0.45904,-0.02 0.83824,-0.0599 1.65653,3.07355 2.31515,4.0515 3.4328,5.1492 0.93803,0.91807 2.1954,1.45694 3.39288,1.45694 0.43908,0 0.69854,-0.0399 1.29728,-0.21954 z m -5.92756,-9.87927 c 0,1.03782 -0.35925,1.81619 -1.23741,2.65443 -0.43907,0.11975 -0.59874,0.13971 -1.05778,0.13971 -0.65861,0 -0.91807,-0.0399 -1.55673,-0.27942 v -5.70802 c 1.13761,0.02 1.61661,0.11975 2.19539,0.41912 0.31933,0.15967 0.59875,0.35925 0.83825,0.6187 0.53886,0.55883 0.81828,1.31724 0.81828,2.15548 z m -7.85196,8.92128 v -0.41912 c -0.75841,-0.35924 -1.01787,-0.63866 -1.23741,-1.2374 L 240.0389,125.5293 h -1.23741 l -3.71221,10.17865 c -0.59874,1.63657 -0.71849,1.77627 -1.93594,2.19539 v 0.41912 h 4.51054 v -0.41912 c -1.11765,-0.15966 -1.55673,-0.47899 -1.55673,-1.13761 0,-0.2395 0.0798,-0.63866 0.21954,-1.19749 l 0.39916,-1.65652 h 4.55045 l 0.81828,2.21535 c 0.0998,0.2395 0.13971,0.47899 0.13971,0.71849 0,0.55883 -0.2395,0.83824 -0.95799,1.05778 v 0.41912 z m -4.27104,-5.22903 h -3.99163 l 1.93594,-5.84773 z m -7.81267,-4.94961 -0.69854,-2.89393 c -1.77627,0.479 -2.29518,0.53887 -4.94961,0.53887 -2.69435,0 -3.21326,-0.0599 -4.98954,-0.53887 l -0.65861,2.93384 0.3792,0.21954 c 1.0977,-1.49686 1.85611,-1.99581 3.05359,-1.99581 h 1.37712 v 9.30049 c 0,1.33719 -0.57879,1.89602 -2.33511,2.19539 v 0.41912 h 6.46644 v -0.41912 c -1.83615,-0.25945 -2.47481,-0.83824 -2.47481,-2.19539 v -9.30049 h 1.37711 c 1.3372,0 2.07565,0.479 3.03364,1.99581 z m -12.25272,6.86559 -0.41912,-0.11974 c -1.05779,1.97585 -1.89603,2.61451 -3.53259,2.61451 -1.55674,0 -1.97586,-0.41912 -1.97586,-1.89602 v -3.47272 l 1.93594,0.0599 c 1.57669,0.0399 1.87606,0.29937 2.19539,1.7164 h 0.41913 v -4.13133 h -0.41913 c -0.41912,1.27732 -0.77836,1.55673 -2.19539,1.59665 l -1.93594,0.0599 v -5.22903 l 2.05569,0.13971 c 1.2374,0.0798 1.93594,0.67857 2.75422,2.3351 l 0.41912,-0.13971 -0.27941,-3.01368 h -7.98325 v 0.39917 c 1.17753,0.41912 1.37711,0.79832 1.37711,2.4748 v 7.30468 c 0,1.57669 -0.31933,1.9559 -1.91598,2.19539 v 0.41912 h 8.80153 z m -10.73342,-2.61451 v -0.39916 h -5.08933 v 0.47899 c 1.53678,0.29937 1.91598,0.7185 1.91598,2.13552 v 0.81829 c 0,1.45694 -0.93803,2.21535 -2.79413,2.21535 -2.8141,0 -4.77,-2.37502 -4.77,-5.78786 0,-3.45276 1.7164,-5.78786 4.27104,-5.78786 1.9559,0 3.01368,0.81829 4.27104,3.31305 l 0.39917,-0.27941 -0.13971,-3.03364 c -1.97586,-0.65861 -2.83406,-0.81828 -4.17125,-0.81828 -2.13552,0 -3.6723,0.59874 -4.9097,1.91598 -1.13761,1.21745 -1.79623,2.99372 -1.79623,4.86978 0,1.99582 0.73845,3.77209 2.07564,5.04941 1.15758,1.0977 2.35506,1.51682 4.39079,1.51682 0.99791,0 1.89602,-0.11975 2.63448,-0.33929 1.51681,-0.479 1.6166,-0.49895 1.8561,-0.49895 h 0.6187 l -0.27941,-1.91598 v -1.37711 c 0,-1.29728 0.27941,-1.67649 1.51682,-2.07565 z m -14.44813,2.61451 -0.41912,-0.11974 c -1.05778,1.97585 -1.89603,2.61451 -3.53259,2.61451 -1.55674,0 -1.97586,-0.41912 -1.97586,-1.89602 v -3.47272 l 1.93594,0.0599 c 1.57669,0.0399 1.87607,0.29937 2.1954,1.7164 h 0.41912 v -4.13133 h -0.41912 c -0.41913,1.27732 -0.77837,1.55673 -2.1954,1.59665 l -1.93594,0.0599 v -5.22903 l 2.05569,0.13971 c 1.2374,0.0798 1.93594,0.67857 2.75422,2.3351 l 0.41912,-0.13971 -0.27941,-3.01368 h -7.98325 v 0.39917 c 1.17753,0.41912 1.37711,0.79832 1.37711,2.4748 v 7.30468 c 0,1.57669 -0.31933,1.9559 -1.91598,2.19539 v 0.41912 h 8.80153 z m -9.84653,-9.14082 v -0.33929 h -4.39079 v 0.39917 c 1.17753,0.3792 1.51682,0.67857 1.51682,1.35715 0,0.41912 -0.0998,0.91807 -0.27941,1.4769 l -2.21535,6.74585 -2.61452,-7.44438 c -0.13971,-0.39917 -0.27941,-1.03783 -0.27941,-1.29728 0,-0.53887 0.2395,-0.71849 1.11765,-0.83824 v -0.39917 h -4.27104 v 0.39917 c 0.8582,0.39916 1.15757,0.69853 1.37711,1.31723 l 3.99163,11.41605 c 0.63866,-0.79832 0.83824,-1.15757 1.0977,-1.8561 l 3.45275,-9.22066 c 0.35925,-0.93803 0.59875,-1.21744 1.49686,-1.7164 z m -16.93573,6.8656 c 0,-0.71849 -0.55883,-1.29728 -1.25736,-1.29728 -0.75841,0 -1.35715,0.59874 -1.35715,1.31724 0,0.71849 0.55883,1.29727 1.25736,1.29727 0.75841,0 1.35715,-0.57878 1.35715,-1.31723 z m -8.39894,-6.80572 v -0.39917 h -5.22903 v 0.39917 c 1.59665,0.25945 1.91598,0.59874 1.93594,2.21535 l 0.1397,7.56413 -7.34459,-10.17865 h -2.97376 v 0.39917 c 1.63657,0.57878 2.01577,1.05778 1.91598,3.31305 l -0.27941,6.46643 c -0.0798,1.65652 -0.31933,1.9559 -1.91598,2.19539 v 0.41912 h 5.36874 v -0.41912 c -1.7164,-0.19958 -2.03573,-0.53887 -2.07565,-2.19539 l -0.13971,-7.50426 7.64397,10.55785 0.75841,-0.71849 0.27941,-9.89923 c 0.0399,-1.63657 0.33929,-1.9559 1.91598,-2.21535 z m -14.03898,12.39399 v -0.41912 c -0.75841,-0.35924 -1.01787,-0.63866 -1.23741,-1.2374 l -3.99162,-11.13664 h -1.23741 l -3.71221,10.17865 c -0.59874,1.63657 -0.71849,1.77627 -1.93594,2.19539 v 0.41912 h 4.51054 v -0.41912 c -1.11765,-0.15966 -1.55673,-0.47899 -1.55673,-1.13761 0,-0.2395 0.0798,-0.63866 0.21954,-1.19749 l 0.39916,-1.65652 h 4.55045 l 0.81829,2.21535 c 0.0998,0.2395 0.1397,0.47899 0.1397,0.71849 0,0.55883 -0.2395,0.83824 -0.95799,1.05778 v 0.41912 z m -4.27104,-5.22903 h -3.99163 l 1.93594,-5.84773 z m -8.65777,-0.69853 v -0.39916 h -5.08933 v 0.47899 c 1.53678,0.29937 1.91598,0.7185 1.91598,2.13552 v 0.81829 c 0,1.45694 -0.93803,2.21535 -2.79414,2.21535 -2.81409,0 -4.76999,-2.37502 -4.76999,-5.78786 0,-3.45276 1.7164,-5.78786 4.27104,-5.78786 1.9559,0 3.01368,0.81829 4.27104,3.31305 l 0.39916,-0.27941 -0.1397,-3.03364 c -1.97586,-0.65861 -2.83406,-0.81828 -4.17125,-0.81828 -2.13552,0 -3.6723,0.59874 -4.9097,1.91598 -1.13761,1.21745 -1.79623,2.99372 -1.79623,4.86978 0,1.99582 0.73845,3.77209 2.07564,5.04941 1.15757,1.0977 2.35506,1.51682 4.39079,1.51682 0.99791,0 1.89602,-0.11975 2.63447,-0.33929 1.51682,-0.479 1.61661,-0.49895 1.85611,-0.49895 h 0.6187 l -0.27941,-1.91598 v -1.37711 c 0,-1.29728 0.27941,-1.67649 1.51682,-2.07565 z m -14.44813,2.61451 -0.41912,-0.11974 c -1.05778,1.97585 -1.89602,2.61451 -3.53259,2.61451 -1.55673,0 -1.97585,-0.41912 -1.97585,-1.89602 v -3.47272 l 1.93594,0.0599 c 1.57669,0.0399 1.87606,0.29937 2.19539,1.7164 h 0.41912 v -4.13133 h -0.41912 c -0.41912,1.27732 -0.77837,1.55673 -2.19539,1.59665 l -1.93594,0.0599 v -5.22903 l 2.05569,0.13971 c 1.2374,0.0798 1.93593,0.67857 2.75422,2.3351 l 0.41912,-0.13971 -0.27942,-3.01368 h -7.98325 v 0.39917 c 1.17753,0.41912 1.37711,0.79832 1.37711,2.4748 v 7.30468 c 0,1.57669 -0.31933,1.9559 -1.91598,2.19539 v 0.41912 h 8.80154 z m -9.84653,-9.14082 v -0.33929 h -4.39079 v 0.39917 c 1.17753,0.3792 1.51682,0.67857 1.51682,1.35715 0,0.41912 -0.0998,0.91807 -0.27941,1.4769 l -2.21536,6.74585 -2.61451,-7.44438 c -0.13971,-0.39917 -0.27941,-1.03783 -0.27941,-1.29728 0,-0.53887 0.23949,-0.71849 1.11765,-0.83824 v -0.39917 h -4.271039 v 0.39917 c 0.8582,0.39916 1.157572,0.69853 1.377111,1.31723 l 3.991628,11.41605 c 0.63866,-0.79832 0.83824,-1.15757 1.09769,-1.8561 l 3.45276,-9.22066 c 0.35925,-0.93803 0.59874,-1.21744 1.49686,-1.7164 z m -16.935715,6.8656 c 0,-0.71849 -0.558827,-1.29728 -1.257362,-1.29728 -0.758409,0 -1.357152,0.59874 -1.357152,1.31724 0,0.71849 0.558827,1.29727 1.257362,1.29727 0.758408,0 1.357152,-0.57878 1.357152,-1.31723 z m -8.092709,-4.59037 -0.698535,-2.89393 c -1.776273,0.479 -2.295185,0.53887 -4.949616,0.53887 -2.694347,0 -3.213258,-0.0599 -4.989532,-0.53887 l -0.658618,2.93384 0.379205,0.21954 c 1.097697,-1.49686 1.856105,-1.99581 3.053593,-1.99581 h 1.377111 v 9.30049 c 0,1.33719 -0.578786,1.89602 -2.335101,2.19539 v 0.41912 h 6.466433 v -0.41912 c -1.836147,-0.25945 -2.474807,-0.83824 -2.474807,-2.19539 v -9.30049 h 1.37711 c 1.337195,0 2.075646,0.479 3.033636,1.99581 z m -12.39587,7.04522 c 0,-0.87816 -0.299372,-1.69644 -0.818284,-2.23531 -0.279414,-0.29937 -0.698534,-0.6187 -1.237404,-0.95799 -2.115561,-1.37711 -2.654431,-1.77628 -3.173342,-2.3351 -0.419121,-0.479 -0.678576,-1.17753 -0.678576,-1.73636 0,-1.11766 0.818283,-1.91598 1.91598,-1.91598 0.918074,0 1.736357,0.49895 2.394975,1.4769 0.279414,0.43908 0.598744,0.95799 0.918074,1.53678 l 0.419121,-0.19958 -0.419121,-2.89393 c -1.377111,-0.53887 -2.015771,-0.67858 -2.87397,-0.67858 -2.235311,0 -3.73217,1.41703 -3.73217,3.49267 0,1.0977 0.299372,1.79623 1.097697,2.55464 0.678576,0.65862 1.297278,1.11766 3.033635,2.27523 1.157572,0.77837 1.516818,1.27732 1.516818,2.11556 0,1.19749 -0.95799,2.15548 -2.115562,2.15548 -0.698534,0 -1.516817,-0.41912 -2.155477,-1.0977 -0.578786,-0.6187 -0.878158,-1.15757 -1.377111,-2.47481 l -0.419121,0.19959 0.279414,3.29309 c 1.636566,0.65861 2.375017,0.83824 3.452756,0.83824 2.315143,0 3.971668,-1.43699 3.971668,-3.41284 z m -9.901104,0 c 0,-0.87816 -0.299372,-1.69644 -0.818284,-2.23531 -0.279413,-0.29937 -0.698534,-0.6187 -1.237404,-0.95799 -2.115561,-1.37711 -2.654431,-1.77628 -3.173342,-2.3351 -0.419121,-0.479 -0.678576,-1.17753 -0.678576,-1.73636 0,-1.11766 0.818283,-1.91598 1.91598,-1.91598 0.918074,0 1.736357,0.49895 2.394975,1.4769 0.279414,0.43908 0.598744,0.95799 0.918074,1.53678 l 0.419121,-0.19958 -0.419121,-2.89393 c -1.377111,-0.53887 -2.015771,-0.67858 -2.87397,-0.67858 -2.235311,0 -3.73217,1.41703 -3.73217,3.49267 0,1.0977 0.299372,1.79623 1.097697,2.55464 0.678576,0.65862 1.297278,1.11766 3.033635,2.27523 1.157572,0.77837 1.516818,1.27732 1.516818,2.11556 0,1.19749 -0.95799,2.15548 -2.115561,2.15548 -0.698535,0 -1.516818,-0.41912 -2.155478,-1.0977 -0.578786,-0.6187 -0.878158,-1.15757 -1.377111,-2.47481 l -0.419121,0.19959 0.279414,3.29309 c 1.636566,0.65861 2.375017,0.83824 3.452756,0.83824 2.315143,0 3.971668,-1.43699 3.971668,-3.41284 z m -9.076582,-9.26057 v -0.39917 h -4.670202 v 0.39917 c 1.476902,0.29937 1.736357,0.6187 1.776274,2.21535 l 0.139707,4.6702 v 0.45904 c 0,1.7164 -0.179624,2.41493 -0.818284,3.11347 -0.618702,0.67857 -1.476901,1.03782 -2.434891,1.03782 -0.977949,0 -1.836148,-0.33929 -2.534683,-1.03782 -0.798325,-0.79833 -1.097697,-1.63657 -1.097697,-3.21326 v -5.02945 c 0,-1.57669 0.339289,-1.9559 1.935939,-2.21535 v -0.39917 h -4.949616 v 0.39917 c 1.157572,0.41912 1.377111,0.79832 1.377111,2.4748 v 4.98954 c 0,1.67648 0.159665,2.45485 0.678576,3.25317 0.279414,0.43908 0.658619,0.83824 1.097697,1.11766 0.818284,0.55882 1.836148,0.83824 3.033636,0.83824 1.516818,0 2.754221,-0.43908 3.572505,-1.23741 1.037822,-1.01786 1.157571,-1.4769 1.237404,-4.41074 l 0.139707,-4.80991 c 0.03992,-1.49686 0.259455,-1.81619 1.516817,-2.21535 z m -13.2865,0 v -0.39917 h -4.271039 v 0.39917 c 0.838241,0.31933 1.237404,0.69853 1.237404,1.19748 0,0.31933 -0.139707,0.97795 -0.419121,1.97586 l -1.636567,5.98744 -2.494766,-7.42443 c -0.09979,-0.27941 -0.119748,-0.51891 -0.119748,-0.73845 0,-0.53887 0.299372,-0.81828 1.097697,-0.9979 v -0.39917 h -4.27104 v 0.39917 c 1.017865,0.29937 1.377111,0.65861 1.377111,1.33719 0,0.39916 -0.09979,0.8582 -0.279414,1.35715 l -2.335101,6.3866 -2.195394,-7.56413 c -0.09979,-0.31933 -0.139707,-0.59874 -0.139707,-0.81828 0,-0.39916 0.21954,-0.59874 0.818284,-0.69853 v -0.39917 h -3.991626 v 0.39917 c 0.898116,0.29937 1.157571,0.51891 1.377111,1.2374 l 3.572505,11.43601 c 0.359246,-0.51891 0.478995,-0.73845 0.698534,-1.31724 l 3.153384,-8.52212 3.033636,9.83936 c 0.478995,-0.57879 0.578786,-0.77837 0.818283,-1.51682 l 2.993719,-8.9612 c 0.439079,-1.31724 0.698535,-1.61661 1.975855,-2.19539 z m -18.579458,9.08094 -0.419121,-0.11974 c -1.057781,1.97585 -1.896022,2.61451 -3.532589,2.61451 -1.556734,0 -1.975854,-0.41912 -1.975854,-1.89602 v -3.47272 l 1.935938,0.0599 c 1.576692,0.0399 1.876064,0.29937 2.195394,1.7164 h 0.419121 v -4.13133 H 19.24213 c -0.41912,1.27732 -0.778367,1.55673 -2.195394,1.59665 l -1.935938,0.0599 v -5.22903 l 2.055687,0.13971 c 1.237404,0.0798 1.935938,0.67857 2.754222,2.3351 l 0.41912,-0.13971 -0.279414,-3.01368 h -7.983251 v 0.39917 c 1.17753,0.41912 1.377111,0.79832 1.377111,2.4748 v 7.30468 c 0,1.57669 -0.31933,1.9559 -1.91598,2.19539 v 0.41912 h 8.801534 z m -10.859717,0.15967 c 0,-1.0977 -0.6187017,-2.0956 -1.6565244,-2.63447 -0.3592463,-0.17963 -0.618702,-0.27942 -1.6365665,-0.61871 1.1176552,-1.21744 1.4769015,-1.69644 1.7762734,-2.39497 0.1796232,-0.41912 0.2794138,-0.87816 0.2794138,-1.35715 0,-1.67649 -1.1775296,-2.77418 -2.9538029,-2.77418 -0.8182833,0 -1.1176552,0.02 -2.8340542,0.27941 l -2.61451479,-0.21954 v 0.41912 c 1.17752959,0.51891 1.37711079,0.89812 1.37711079,2.53468 v 7.30468 c 0,1.57669 -0.31933,1.9559 -1.915980241484833,2.19539 v 0.41912 H 3.2930911 c 1.1176551,0.13971 2.035729,0.19959 2.7342635,0.19959 2.4548497,0 4.1512904,-1.37712 4.1512904,-3.35297 z m -2.055687,-0.0998 c 0,1.4769 -1.097697,2.69435 -2.4348916,2.69435 -1.3371945,0 -2.1155615,-0.75841 -2.1155615,-2.05569 v -3.4328 c 2.1554778,0.11975 3.0735517,0.39916 3.8519187,1.0977 0.4590369,0.41912 0.6985344,0.97795 0.6985344,1.69644 z m -0.6985344,-5.90761 c 0,0.61871 -0.1995813,1.23741 -0.5388695,1.73636 -0.1796231,0.2395 -0.4191207,0.51891 -0.6985345,0.81828 l -2.3351009,-0.2794 -0.2794138,-0.27941 v -4.94962 c 1.6565246,0.13971 2.3949753,0.3792 3.0336354,0.95799 0.5189113,0.49895 0.8182833,1.21745 0.8182833,1.99581 z" />
</svg>
