<?xml version="1.0" encoding="UTF-8" standalone="no"?>
<svg
   xmlns:dc="http://purl.org/dc/elements/1.1/"
   xmlns:cc="http://creativecommons.org/ns#"
   xmlns:rdf="http://www.w3.org/1999/02/22-rdf-syntax-ns#"
   xmlns:svg="http://www.w3.org/2000/svg"
   xmlns="http://www.w3.org/2000/svg"
   xmlns:sodipodi="http://sodipodi.sourceforge.net/DTD/sodipodi-0.dtd"
   xmlns:inkscape="http://www.inkscape.org/namespaces/inkscape"
   width="300"
   height="140"
   viewBox="0 0 300 140"
   version="1.2"
   id="svg34"
   sodipodi:docname="govinda.svg"
   inkscape:version="0.92.2 (5c3e80d, 2017-08-06)"
   inkscape:export-filename="/home/fedora-user/Documents/projects/clients/govinda-leipzig.de/workbench/logo/logo-links.png"
   inkscape:export-xdpi="96"
   inkscape:export-ydpi="96">
  <sodipodi:namedview
     pagecolor="#ffffff"
     bordercolor="#666666"
     borderopacity="1"
     objecttolerance="10"
     gridtolerance="10"
     guidetolerance="10"
     inkscape:pageopacity="0"
     inkscape:pageshadow="2"
     inkscape:window-width="2560"
     inkscape:window-height="1403"
     id="namedview36"
     showgrid="false"
     inkscape:zoom="2.8144362"
     inkscape:cx="124.99151"
     inkscape:cy="29.542984"
     inkscape:window-x="0"
     inkscape:window-y="0"
     inkscape:window-maximized="1"
     inkscape:current-layer="svg34"
     units="px" />
  <defs
     id="defs5">
    <clipPath
       id="clip1">
      <path
         d="m 225,52 h 35.78906 V 95 H 225 Z m 0,0"
         id="path2"
         inkscape:connector-curvature="0" />
    </clipPath>
  </defs>
  <g
     id="g858"
     transform="matrix(1.1571493,0,0,1.1571493,-0.94470263,-0.722599)">
    <path
       d="m 161.76172,1.230469 c -33.09375,-1.96875 -52.83594,17.90625 -38.13281,43.871093 27.65234,10.855469 44.91406,-11.179687 38.13281,-43.871093"
       id="path23"
       inkscape:connector-curvature="0"
       style="fill:#f58a0f" />
    <path
       inkscape:connector-curvature="0"
       style="fill:#cf5e11"
       d="M 155.33594,8.632812 C 128.85547,6.3125 112.78906,22.476562 125.125,43.386719 147.46484,52.621094 161.5,34.691406 155.33594,8.632812"
       id="path25" />
    <path
       inkscape:connector-curvature="0"
       style="fill:#9ca305"
       d="m 133.53516,43.019531 c 6.89843,1.53125 13.83593,-2.851562 15.5,-9.800781 1.66015,-6.945312 -2.58204,-13.820312 -9.48047,-15.355469 -6.89844,-1.535156 -13.83594,2.855469 -15.5,9.800781 -1.66016,6.945313 2.58594,13.820313 9.48047,15.355469"
       id="path27" />
    <path
       inkscape:connector-curvature="0"
       style="fill:#ba2317"
       d="m 141.05469,25.042969 c -12.94532,-2.710938 -19.04297,8.367187 -12.6836,14.09375 6.20703,5.589843 16.71094,-1.714844 12.6836,-14.09375"
       id="path29" />
  </g>
  <path
     id="path885"
     style="fill:#789417"
     d="m 258.34715,124.13381 h -2.73087 l 0.67114,10.85406 1.11087,-0.34714 z m -0.23143,13.53865 c 0,-0.71744 -0.57858,-1.31915 -1.29601,-1.31915 -0.76372,0 -1.36543,0.60171 -1.36543,1.34229 0,0.76372 0.60171,1.38858 1.34229,1.38858 0.74057,0 1.31915,-0.62486 1.31915,-1.41172 z m -4.57761,-13.09893 v -0.46286 h -6.06347 v 0.46286 c 1.85144,0.30086 2.22173,0.69429 2.24487,2.56887 l 0.162,8.77119 -8.51662,-11.80292 h -3.4483 v 0.46286 c 1.89772,0.67114 2.33744,1.22658 2.22173,3.84173 l -0.32401,7.49833 c -0.0926,1.92087 -0.37028,2.26801 -2.22172,2.54573 v 0.486 h 6.22546 v -0.486 c -1.9903,-0.23143 -2.36058,-0.62486 -2.40687,-2.54573 l -0.162,-8.70176 8.86376,12.24264 0.87944,-0.83315 0.324,-11.47892 c 0.0463,-1.89773 0.39343,-2.26801 2.22173,-2.56887 z m -17.37858,10.53006 -0.486,-0.13886 c -1.22658,2.29115 -2.19859,3.03173 -4.09631,3.03173 -1.80516,0 -2.29116,-0.486 -2.29116,-2.19858 V 131.771 l 2.24487,0.0694 c 1.8283,0.0463 2.17544,0.34715 2.54573,1.9903 h 0.486 v -4.7906 h -0.486 c -0.486,1.48115 -0.90258,1.80516 -2.54573,1.85144 l -2.24487,0.0694 v -6.06346 l 2.38373,0.162 c 1.43486,0.0926 2.24487,0.78686 3.19373,2.70773 l 0.486,-0.162 -0.324,-3.49459 h -9.25719 v 0.46286 c 1.36543,0.486 1.59686,0.92572 1.59686,2.86973 v 8.47033 c 0,1.8283 -0.37028,2.26801 -2.22172,2.54573 v 0.486 h 10.20605 z m -12.60208,1.24972 c 0,-1.22658 -0.69428,-2.22173 -2.01343,-2.98545 l -1.5043,-0.87943 c -1.11086,-0.64801 -1.43486,-1.06458 -1.43486,-1.78201 0,-0.69429 0.23143,-1.01829 1.11086,-1.5043 1.55058,-0.83314 2.1523,-1.66629 2.1523,-2.9623 0,-2.26801 -1.96716,-3.91116 -4.6286,-3.91116 -2.40687,0 -4.37402,1.38858 -4.9526,3.51773 -0.27772,0.97201 -0.324,1.57372 -0.324,3.26316 0,0.46286 0.0231,0.90258 0.0231,1.3423 v 5.46174 c 0,1.73572 -0.34714,2.26801 -1.59686,2.4763 v 0.55543 h 5.25345 v -0.55543 c -1.64315,-0.41657 -1.92086,-0.74058 -1.92086,-2.4763 v -8.37776 c 0,-2.8003 0.972,-4.23517 2.89287,-4.23517 1.80515,0 3.26316,1.3423 3.26316,3.05488 0,0.81 -0.324,1.62001 -0.81,2.03658 -0.0463,0.0463 -0.27772,0.23143 -0.71744,0.57857 -0.85629,0.64801 -1.27286,1.43487 -1.27286,2.36059 0,1.08772 0.486,1.8283 1.59686,2.49944 l 1.59687,0.97201 c 0.90258,0.55543 1.20344,0.78686 1.43487,1.18029 0.162,0.27772 0.25457,0.57857 0.25457,0.90258 0,0.87943 -0.62486,1.50429 -1.5043,1.50429 -0.81,0 -1.64315,-0.50915 -2.24486,-1.36544 -0.25458,-0.34714 -0.53229,-0.78686 -0.81001,-1.27286 l -0.486,0.162 0.162,2.86973 c 1.55058,0.37029 2.22173,0.486 3.17059,0.486 2.01344,0 3.30944,-1.134 3.30944,-2.91601 z m -14.92542,-1.24972 -0.486,-0.13886 c -1.22658,2.29115 -2.19858,3.03173 -4.09631,3.03173 -1.80515,0 -2.29115,-0.486 -2.29115,-2.19858 V 131.771 l 2.24487,0.0694 c 1.82829,0.0463 2.17544,0.34715 2.54573,1.9903 h 0.486 v -4.7906 h -0.486 c -0.48601,1.48115 -0.90258,1.80516 -2.54573,1.85144 l -2.24487,0.0694 v -6.06346 l 2.38372,0.162 c 1.43487,0.0926 2.24487,0.78686 3.19374,2.70773 l 0.486,-0.162 -0.324,-3.49459 h -9.2572 v 0.46286 c 1.36544,0.486 1.59687,0.92572 1.59687,2.86973 v 8.47033 c 0,1.8283 -0.37029,2.26801 -2.22173,2.54573 v 0.486 h 10.20606 z m -11.95117,3.84173 v -0.486 c -1.85144,-0.27772 -2.24487,-0.71743 -2.24487,-2.54573 v -8.77119 c 0,-1.8283 0.39343,-2.26801 2.24487,-2.56887 v -0.46286 h -6.22547 v 0.46286 c 1.71259,0.34714 2.05973,0.78686 2.05973,2.56887 v 8.77119 c 0,1.8283 -0.37029,2.26801 -2.22173,2.54573 v 0.486 z m -7.19277,-14.37179 v -0.46286 h -6.06347 v 0.46286 c 1.85144,0.30086 2.22173,0.69429 2.24487,2.56887 l 0.162,8.77119 -8.51661,-11.80292 h -3.44831 v 0.46286 c 1.89773,0.67114 2.33744,1.22658 2.22173,3.84173 l -0.324,7.49833 c -0.0926,1.92087 -0.37029,2.26801 -2.22173,2.54573 v 0.486 h 6.22546 v -0.486 c -1.99029,-0.23143 -2.36058,-0.62486 -2.40687,-2.54573 l -0.162,-8.70176 8.86376,12.24264 0.87944,-0.83315 0.324,-11.47892 c 0.0463,-1.89773 0.39343,-2.26801 2.22173,-2.56887 z m -17.37858,10.53006 -0.486,-0.13886 c -1.22658,2.29115 -2.19859,3.03173 -4.09631,3.03173 -1.80515,0 -2.29116,-0.486 -2.29116,-2.19858 V 131.771 l 2.24487,0.0694 c 1.8283,0.0463 2.17544,0.34715 2.54573,1.9903 h 0.486 v -4.7906 h -0.486 c -0.486,1.48115 -0.90258,1.80516 -2.54573,1.85144 l -2.24487,0.0694 v -6.06346 l 2.38373,0.162 c 1.43487,0.0926 2.24487,0.78686 3.19373,2.70773 l 0.486,-0.162 -0.324,-3.49459 h -9.25719 v 0.46286 c 1.36543,0.486 1.59686,0.92572 1.59686,2.86973 v 8.47033 c 0,1.8283 -0.37028,2.26801 -2.22172,2.54573 v 0.486 h 10.20605 z m -12.44623,-3.03174 v -0.46286 h -5.90146 v 0.55544 c 1.78201,0.34714 2.22173,0.83314 2.22173,2.4763 v 0.94886 c 0,1.68944 -1.08772,2.56887 -3.24002,2.56887 -3.26316,0 -5.53118,-2.75402 -5.53118,-6.71147 0,-4.00373 1.9903,-6.71146 4.9526,-6.71146 2.26802,0 3.49459,0.94886 4.9526,3.84173 l 0.46286,-0.324 -0.162,-3.51773 c -2.29115,-0.76372 -3.2863,-0.94886 -4.83688,-0.94886 -2.4763,0 -4.25831,0.69429 -5.69318,2.22172 -1.31915,1.41172 -2.08287,3.47145 -2.08287,5.64689 0,2.3143 0.85629,4.37403 2.40687,5.85518 1.3423,1.27286 2.73088,1.75886 5.09146,1.75886 1.15715,0 2.19859,-0.13885 3.05488,-0.39343 1.75886,-0.55543 1.87458,-0.57857 2.15229,-0.57857 h 0.71744 l -0.32401,-2.22173 v -1.59686 c 0,-1.5043 0.32401,-1.94402 1.75887,-2.40688 z m -20.40017,-4.92945 -0.81001,-3.35573 c -2.05972,0.55543 -2.66144,0.62486 -5.73946,0.62486 -3.1243,0 -3.72602,-0.0694 -5.78574,-0.62486 l -0.76372,3.40201 0.43972,0.25458 c 1.27286,-1.73573 2.15229,-2.3143 3.54087,-2.3143 h 1.59687 v 10.78463 c 0,1.55058 -0.67115,2.19858 -2.70773,2.54573 v 0.486 h 7.49833 v -0.486 c -2.12916,-0.30086 -2.86973,-0.97201 -2.86973,-2.54573 v -10.78463 h 1.59686 c 1.55058,0 2.40687,0.55543 3.51774,2.3143 z m -14.37397,8.16947 c 0,-1.01829 -0.34715,-1.96715 -0.94886,-2.59201 -0.324,-0.34715 -0.81001,-0.71743 -1.43487,-1.11087 -2.45315,-1.59686 -3.07802,-2.05972 -3.67973,-2.70772 -0.48601,-0.55544 -0.78686,-1.36544 -0.78686,-2.01344 0,-1.29601 0.94886,-2.22173 2.22172,-2.22173 1.06458,0 2.01344,0.57857 2.77716,1.71258 0.324,0.50915 0.69429,1.11086 1.06458,1.78201 l 0.486,-0.23143 -0.486,-3.35573 c -1.59687,-0.62486 -2.33744,-0.78686 -3.33259,-0.78686 -2.59202,0 -4.32774,1.64315 -4.32774,4.05002 0,1.27286 0.34714,2.08287 1.27286,2.9623 0.78687,0.76372 1.5043,1.29601 3.51774,2.6383 1.34229,0.90258 1.75886,1.48115 1.75886,2.45316 0,1.38858 -1.11086,2.49944 -2.45315,2.49944 -0.81001,0 -1.75887,-0.486 -2.49944,-1.27286 -0.67115,-0.71744 -1.0183,-1.3423 -1.59687,-2.86973 l -0.486,0.23143 0.324,3.81859 c 1.89772,0.76372 2.75401,0.972 4.00374,0.972 2.68458,0 4.60545,-1.66629 4.60545,-3.95745 z m -11.48109,0 c 0,-1.01829 -0.34715,-1.96715 -0.94886,-2.59201 -0.32401,-0.34715 -0.81001,-0.71743 -1.43487,-1.11087 -2.45316,-1.59686 -3.07802,-2.05972 -3.67973,-2.70772 -0.48601,-0.55544 -0.78687,-1.36544 -0.78687,-2.01344 0,-1.29601 0.94887,-2.22173 2.22173,-2.22173 1.06458,0 2.01344,0.57857 2.77716,1.71258 0.324,0.50915 0.69429,1.11086 1.06458,1.78201 l 0.486,-0.23143 -0.486,-3.35573 c -1.59687,-0.62486 -2.33744,-0.78686 -3.33259,-0.78686 -2.59202,0 -4.32774,1.64315 -4.32774,4.05002 0,1.27286 0.34714,2.08287 1.27286,2.9623 0.78686,0.76372 1.5043,1.29601 3.51774,2.6383 1.34229,0.90258 1.75886,1.48115 1.75886,2.45316 0,1.38858 -1.11086,2.49944 -2.45315,2.49944 -0.81001,0 -1.75887,-0.486 -2.49945,-1.27286 -0.67114,-0.71744 -1.01829,-1.3423 -1.59686,-2.86973 l -0.486,0.23143 0.324,3.81859 c 1.89772,0.76372 2.75401,0.972 4.00373,0.972 2.68459,0 4.60546,-1.66629 4.60546,-3.95745 z m -10.525,-10.73834 v -0.46286 h -5.415456 v 0.46286 c 1.712581,0.34714 2.01344,0.71743 2.059725,2.56887 l 0.162001,5.41546 v 0.53229 c 0,1.99029 -0.208286,2.8003 -0.948862,3.6103 -0.717433,0.78686 -1.712581,1.20344 -2.823444,1.20344 -1.134007,0 -2.129155,-0.39343 -2.93916,-1.20344 -0.925719,-0.92572 -1.272864,-1.89772 -1.272864,-3.72602 v -5.83203 c 0,-1.8283 0.393431,-2.26801 2.24487,-2.56887 v -0.46286 h -5.739461 v 0.46286 c 1.342294,0.486 1.596866,0.92572 1.596866,2.86973 v 5.78574 c 0,1.94401 0.185144,2.84659 0.786862,3.77231 0.324002,0.50915 0.763718,0.97201 1.272864,1.29601 0.948863,0.648 2.129155,0.972 3.517734,0.972 1.758867,0 3.193732,-0.50914 4.142594,-1.43486 1.203431,-1.18029 1.342291,-1.71258 1.434861,-5.1146 l 0.16201,-5.57746 c 0.0463,-1.73573 0.30085,-2.10601 1.75886,-2.56887 z m -15.406717,0 v -0.46286 h -4.952599 v 0.46286 c 0.972005,0.37028 1.434865,0.81 1.434865,1.38858 0,0.37028 -0.162001,1.134 -0.486003,2.29115 l -1.897725,6.9429 -2.892873,-8.60919 c -0.115715,-0.324 -0.138858,-0.60172 -0.138858,-0.85629 0,-0.62486 0.347145,-0.94887 1.272864,-1.15715 v -0.46286 h -4.952599 v 0.46286 c 1.180293,0.34714 1.596866,0.76372 1.596866,1.55058 0,0.46286 -0.115715,0.99515 -0.324001,1.57372 l -2.70773,7.40576 -2.545728,-8.7712 c -0.115715,-0.37028 -0.162001,-0.69429 -0.162001,-0.94886 0,-0.46286 0.254573,-0.69429 0.948862,-0.81 v -0.46286 h -4.628597 v 0.46286 c 1.041434,0.34714 1.342293,0.60171 1.596866,1.43486 l 4.142595,13.26093 c 0.416573,-0.60171 0.555431,-0.85629 0.810004,-1.52743 l 3.656592,-9.88206 3.517734,11.40949 c 0.555431,-0.67114 0.671146,-0.90257 0.948862,-1.75886 l 3.471448,-10.3912 c 0.509146,-1.52744 0.810005,-1.87459 2.291156,-2.54573 z m -21.544312,10.53006 -0.486002,-0.13886 c -1.226579,2.29115 -2.198584,3.03173 -4.096309,3.03173 -1.805153,0 -2.291155,-0.486 -2.291155,-2.19858 V 131.771 l 2.244869,0.0694 c 1.828296,0.0463 2.175441,0.34715 2.545729,1.9903 h 0.486002 v -4.7906 h -0.486002 c -0.486003,1.48115 -0.902577,1.80516 -2.545729,1.85144 l -2.244869,0.0694 v -6.06346 l 2.383727,0.162 c 1.434865,0.0926 2.24487,0.78686 3.193732,2.70773 l 0.486003,-0.162 -0.324002,-3.49459 h -9.257194 v 0.46286 c 1.365436,0.486 1.596866,0.92572 1.596866,2.86973 v 8.47033 c 0,1.8283 -0.370288,2.26801 -2.221727,2.54573 v 0.486 h 10.206057 z m -12.592677,0.18514 c 0,-1.27286 -0.717432,-2.43001 -1.920868,-3.05487 -0.416573,-0.20829 -0.717432,-0.32401 -1.897725,-0.71744 1.296008,-1.41172 1.712581,-1.96715 2.059726,-2.77716 0.208287,-0.486 0.324002,-1.01829 0.324002,-1.57372 0,-1.94401 -1.365436,-3.21687 -3.425162,-3.21687 -0.948862,0 -1.296007,0.0231 -3.286304,0.324 l -3.031731,-0.25457 v 0.486 c 1.365436,0.60172 1.596866,1.04143 1.596866,2.93916 v 8.47033 c 0,1.8283 -0.370288,2.26801 -2.221727,2.54573 v 0.486 h 3.818593 c 1.296007,0.162 2.360585,0.23143 3.170589,0.23143 2.846587,0 4.813741,-1.59686 4.813741,-3.88802 z m -2.383727,-0.11572 c 0,1.71259 -1.272865,3.12431 -2.823445,3.12431 -1.55058,0 -2.453156,-0.87944 -2.453156,-2.38373 V 131.933 c 2.499442,0.13885 3.56402,0.46286 4.466596,1.27286 0.532289,0.486 0.810005,1.13401 0.810005,1.96715 z m -0.810005,-6.85032 c 0,0.71743 -0.23143,1.43487 -0.624861,2.01344 -0.208286,0.27772 -0.486002,0.60172 -0.810004,0.94886 l -2.707729,-0.324 -0.324002,-0.324 v -5.73946 c 1.920868,0.162 2.777158,0.43972 3.517734,1.11086 0.601717,0.57858 0.948862,1.41172 0.948862,2.3143 z M 295.83697,73.660404 c 0.28929,-4.646677 0.38873,-6.970017 1.83969,-13.167093 -13.06765,0 -19.74838,0.678017 -25.17252,4.646678 -6.87057,5.035407 -12.38963,14.712972 -12.38963,26.040379 0,11.811062 4.06358,17.040832 9.19843,17.040832 3.48501,0 9.48773,-3.00136 14.1344,-9.777008 l 0.38421,0.189845 -0.48366,9.004063 h 5.32471 c 5.22977,0 11.03811,-2.5177 11.3274,-9.871925 l -5.22977,0.772939 -0.48366,-0.483652 z m -10.3601,-5.713424 -1.45096,27.107126 -11.3274,4.741601 c -0.96731,-1.93461 -1.74025,-5.90327 -1.74025,-9.677566 0,-9.198432 3.29064,-17.135754 7.45367,-22.171161 h 7.06494 M 251.59861,53.912025 c 0.38421,-6.486365 0.48365,-8.615339 1.54588,-15.101704 l -1.35603,-1.455476 -16.94139,3.195721 6.68073,8.036763 -0.77294,12.389634 c -0.48366,-0.194364 -2.12897,-0.289288 -3.09628,-0.289288 -8.90915,0 -22.75425,11.81106 -22.75425,30.203406 0,15.101699 5.71342,17.330119 9.29787,17.330119 3.96866,0 9.87193,-3.87374 14.03496,-9.777008 l 0.38873,0.189845 -0.48366,9.004063 h 5.51906 c 5.22525,0 11.03359,-3.29064 11.13304,-9.871925 l -5.22977,0.772939 -0.48365,-0.483652 z m -11.32741,14.034955 -1.45096,27.107126 -11.3274,4.741601 c -0.96731,-1.93461 -1.74476,-5.90327 -1.74476,-9.677566 0,-9.198432 3.29517,-17.135754 7.45367,-22.171161 h 7.06945 m -29.91411,29.819195 -5.41963,0.772939 -0.28928,-0.38873 1.64532,-31.848726 c 0.18985,-3.679372 -2.42278,-6.386921 -6.39144,-6.386921 -6.00271,0 -11.03812,4.063582 -15.68028,11.517251 l -0.19436,-0.194365 0.67802,-10.744312 h -5.32469 c -6.39145,0 -10.93869,2.906433 -12.10035,10.360103 l 6.09763,-0.678018 0.28929,0.384209 -1.83969,36.305555 h 11.32741 c -0.28928,-4.45231 -0.38873,-8.520411 -0.38873,-8.520411 l 1.16166,-23.522675 9.10352,-5.130331 2.02953,1.54588 c 0.19437,3.679374 0.38873,3.584451 0.19437,6.780172 l -1.55041,29.620305 h 5.32471 c 5.90777,0 11.13303,-3.19572 11.3274,-9.871925 m -48.1121,0 -5.03541,0.772939 -0.57857,-0.967305 1.25659,-23.911405 1.26111,-13.167093 H 153.146 c -7.06494,0 -11.22796,3.584451 -12.10035,10.360103 l 5.61398,-0.678018 0.48365,0.483652 c 0.28929,1.450957 0.0949,2.901913 0,5.708905 l -1.55039,31.270147 h 5.32469 c 5.80835,0 11.23248,-3.29064 11.32741,-9.871925 M 135.91533,70.948336 c 0,-4.063583 -0.19437,-8.615338 -0.38874,-10.455025 h -3.96866 c -3.87373,0 -8.52041,3.390086 -8.52041,8.714781 v 1.062226 l 4.74611,-0.678017 0.48366,0.483653 c 0.0949,0.678017 0.57857,1.839687 0.57857,4.940485 0,8.515895 -2.12897,23.522675 -12.00542,24.684345 l -2.12897,-1.450957 c -0.57858,-2.422781 -0.57858,-4.262468 -0.57858,-6.875094 0,-2.223896 0,-4.257948 0.19437,-6.680729 l 1.54588,-24.200693 h -6.09764 c -5.61398,0 -10.744311,2.906433 -11.616694,10.360103 l 6.097634,-0.678018 0.0994,2.223896 -1.06674,21.203857 c 0,0.77294 -0.0949,1.356035 -0.0949,2.029532 0,8.520419 4.35739,12.005419 10.35558,12.005419 14.81241,0 22.36553,-22.361002 22.36553,-36.689764 m -41.820087,6.391442 c 0,-13.167094 -4.841041,-17.135754 -15.00678,-17.135754 -12.873286,0 -21.294258,13.745668 -21.294258,30.108482 0,12.195274 3.869218,17.908694 14.518608,17.908694 12.100346,0 21.78243,-12.100347 21.78243,-30.881422 z m -10.744311,1.256591 c 0,5.613983 -0.488173,15.874642 -3.485008,22.071721 h -3.778817 c -6.291999,0 -7.54859,-3.385568 -7.54859,-11.811061 0,-6.775651 0.678016,-15.196625 3.57993,-21.488624 h 3.584451 c 6.192557,0 7.648034,3.774296 7.648034,11.227964 M 52.370048,75.206284 H 27.880067 l 1.356034,2.811511 7.354227,3.57993 -0.967305,18.297424 -1.450957,1.645321 c -0.967304,0.57858 -2.806991,1.25659 -5.13033,1.25659 -11.716137,0 -16.069006,-7.259302 -16.069006,-21.777909 0,-21.588067 6.676209,-33.498569 18.487268,-33.498569 2.228417,0 4.551755,0.678018 5.613982,1.356035 l 1.356035,1.744764 3.19572,8.321531 5.613982,2.617146 0.967304,-10.165738 1.161671,-6.486363 C 41.625735,43.457 36.495406,43.163192 31.749285,43.163192 10.549949,43.163192 1.0014158e-6,60.687675 1.0014158e-6,81.597725 1.0014158e-6,98.73348 9.7770089,107.92739 23.328311,107.92739 c 5.613983,0 13.262017,-0.18984 24.783788,-3.29064 l -0.483652,-4.935966 1.16167,-19.169806 3.485009,-3.001356 0.09492,-2.323338"
     inkscape:connector-curvature="0" />
  <metadata
     id="metadata965">
    <rdf:RDF>
      <cc:Work
         rdf:about="">
        <dc:title></dc:title>
      </cc:Work>
    </rdf:RDF>
  </metadata>
</svg>
