<?xml version="1.0" encoding="UTF-8" standalone="no"?>
<svg
   xmlns:dc="http://purl.org/dc/elements/1.1/"
   xmlns:cc="http://creativecommons.org/ns#"
   xmlns:rdf="http://www.w3.org/1999/02/22-rdf-syntax-ns#"
   xmlns:svg="http://www.w3.org/2000/svg"
   xmlns="http://www.w3.org/2000/svg"
   xmlns:sodipodi="http://sodipodi.sourceforge.net/DTD/sodipodi-0.dtd"
   xmlns:inkscape="http://www.inkscape.org/namespaces/inkscape"
   width="300"
   height="140"
   viewBox="0 0 300 140"
   version="1.2"
   id="svg34"
   sodipodi:docname="govinda.svg"
   inkscape:version="0.92.3 (2405546, 2018-03-11)"
   inkscape:export-filename="/home/fedora-user/Documents/projects/clients/govinda-leipzig.de/workbench/logo/logo-links.png"
   inkscape:export-xdpi="96"
   inkscape:export-ydpi="96">
  <metadata
     id="metadata38">
    <rdf:RDF>
      <cc:Work
         rdf:about="">
        <dc:format>image/svg+xml</dc:format>
        <dc:type
           rdf:resource="http://purl.org/dc/dcmitype/StillImage" />
        <dc:title></dc:title>
      </cc:Work>
    </rdf:RDF>
  </metadata>
  <sodipodi:namedview
     pagecolor="#ffffff"
     bordercolor="#666666"
     borderopacity="1"
     objecttolerance="10"
     gridtolerance="10"
     guidetolerance="10"
     inkscape:pageopacity="0"
     inkscape:pageshadow="2"
     inkscape:window-width="1920"
     inkscape:window-height="1016"
     id="namedview36"
     showgrid="false"
     inkscape:zoom="1.9901069"
     inkscape:cx="150.2129"
     inkscape:cy="106.01628"
     inkscape:window-x="0"
     inkscape:window-y="579"
     inkscape:window-maximized="1"
     inkscape:current-layer="svg34"
     units="px" />
  <defs
     id="defs5">
    <clipPath
       id="clip1">
      <path
         d="m 225,52 h 35.78906 V 95 H 225 Z m 0,0"
         id="path2"
         inkscape:connector-curvature="0" />
    </clipPath>
  </defs>
  <g
     id="g858"
     transform="matrix(1.1571493,0,0,1.1571493,-0.94470214,-0.65433435)">
    <path
       inkscape:connector-curvature="0"
       style="fill:#f58a0f;fill-opacity:1;fill-rule:nonzero;stroke:none"
       d="m 161.76172,1.230469 c -33.09375,-1.96875 -52.83594,17.90625 -38.13281,43.871093 27.65234,10.855469 44.91406,-11.179687 38.13281,-43.871093"
       id="path23" />
    <path
       inkscape:connector-curvature="0"
       style="fill:#cf5e11;fill-opacity:1;fill-rule:nonzero;stroke:none"
       d="M 155.33594,8.632812 C 128.85547,6.3125 112.78906,22.476562 125.125,43.386719 147.46484,52.621094 161.5,34.691406 155.33594,8.632812"
       id="path25" />
    <path
       inkscape:connector-curvature="0"
       style="fill:#9ca305;fill-opacity:1;fill-rule:nonzero;stroke:none"
       d="m 133.53516,43.019531 c 6.89843,1.53125 13.83593,-2.851562 15.5,-9.800781 1.66015,-6.945312 -2.58204,-13.820312 -9.48047,-15.355469 -6.89844,-1.535156 -13.83594,2.855469 -15.5,9.800781 -1.66016,6.945313 2.58594,13.820313 9.48047,15.355469"
       id="path27" />
    <path
       inkscape:connector-curvature="0"
       style="fill:#ba2317;fill-opacity:1;fill-rule:nonzero;stroke:none"
       d="m 141.05469,25.042969 c -12.94532,-2.710938 -19.04297,8.367187 -12.6836,14.09375 6.20703,5.589843 16.71094,-1.714844 12.6836,-14.09375"
       id="path29" />
  </g>
  <path
     id="path967"
     d="m 298.16652,137.88423 v -0.53462 c -1.782,-0.43277 -2.11294,-0.891 -2.11294,-2.80029 V 124.901 c 0,-1.9093 0.33094,-2.36752 2.11294,-2.82576 v -0.50914 h -5.98245 v 0.50914 c 1.50197,0.53461 1.75655,1.01829 1.75655,3.1567 v 3.33491 l -0.5346,0.3564 h -7.89176 V 124.901 c 0,-1.9093 0.3564,-2.36752 2.11296,-2.82576 v -0.50914 h -5.98247 v 0.50914 c 1.50197,0.53461 1.75655,1.01829 1.75655,3.1567 v 9.31738 c 0,1.96021 -0.38186,2.41844 -2.2657,2.80029 v 0.53462 h 6.49162 v -0.53462 c -1.75656,-0.43277 -2.11296,-0.891 -2.11296,-2.80029 v -4.22591 l 0.5346,-0.33094 h 7.89176 v 4.55685 c 0,1.96021 -0.38186,2.41844 -2.29116,2.80029 v 0.53462 z m -20.6831,-4.91327 -0.5346,-0.1782 c -1.70564,3.08033 -3.15671,4.30228 -5.11691,4.30228 -2.97851,0 -5.24421,-3.33489 -5.24421,-7.73901 0,-4.17499 2.11296,-7.10258 5.11692,-7.10258 1.04374,0 2.18933,0.43277 2.77484,1.0692 0.63644,0.66189 1.24741,1.73109 1.75656,3.15671 l 0.5346,-0.1782 v -3.86951 c -2.06204,-0.99284 -2.97851,-1.22196 -4.68415,-1.22196 -4.78596,0 -8.14632,3.48765 -8.14632,8.47728 0,2.62211 1.04375,5.09146 2.82576,6.7971 1.32377,1.24741 2.80029,1.75656 5.2442,1.75656 1.6038,0 2.41844,-0.12734 4.40411,-0.71282 z m -17.54708,0.91647 c 0,-1.12012 -0.38186,-2.16387 -1.04375,-2.85122 -0.3564,-0.38186 -0.891,-0.78917 -1.57835,-1.22194 -2.69848,-1.75656 -3.38582,-2.26571 -4.0477,-2.97851 -0.53462,-0.61098 -0.86556,-1.50199 -0.86556,-2.21479 0,-1.4256 1.04376,-2.44389 2.4439,-2.44389 1.17104,0 2.21479,0.63642 3.05487,1.88384 0.35641,0.56005 0.76372,1.22194 1.17104,1.9602 l 0.5346,-0.25458 -0.5346,-3.6913 c -1.75655,-0.68735 -2.57119,-0.86555 -3.66585,-0.86555 -2.85122,0 -4.76051,1.80747 -4.76051,4.45503 0,1.40016 0.38185,2.29116 1.40015,3.25853 0.86554,0.8401 1.65473,1.42562 3.8695,2.90214 1.47654,0.99284 1.93476,1.62926 1.93476,2.69847 0,1.52743 -1.22194,2.74938 -2.69848,2.74938 -0.891,0 -1.93474,-0.5346 -2.74938,-1.40015 -0.73826,-0.78917 -1.12012,-1.47651 -1.75655,-3.1567 l -0.5346,0.25457 0.3564,4.20045 c 2.08749,0.8401 3.02941,1.06922 4.40411,1.06922 2.95305,0 5.066,-1.83294 5.066,-4.3532 z m -13.45642,3.9968 v -0.53462 c -2.03658,-0.30548 -2.46936,-0.78917 -2.46936,-2.80029 V 124.901 c 0,-2.01112 0.43278,-2.49482 2.46936,-2.82576 v -0.50914 h -6.84801 v 0.50914 c 1.88384,0.38186 2.26569,0.86556 2.26569,2.82576 v 9.64832 c 0,2.01112 -0.4073,2.49481 -2.44389,2.80029 v 0.53462 z m -7.49265,1.22194 v -0.43277 c -1.27287,-0.10187 -1.782,-0.25457 -2.46935,-0.71281 -0.33094,-0.22911 -0.63644,-0.45823 -0.86556,-0.68735 -0.9419,-0.94192 -2.08749,-2.49481 -5.09145,-6.94983 1.34924,-1.29833 1.83293,-1.88384 2.26571,-2.8003 0.3564,-0.71281 0.5346,-1.52745 0.5346,-2.31662 0,-2.29116 -1.68019,-3.8186 -4.12408,-3.8186 -0.89102,0 -1.32379,0.0509 -3.08034,0.35641 l -3.8695,-0.28004 v 0.53462 c 1.73109,0.68734 2.11294,1.27285 2.11294,3.23306 v 9.31738 c 0,2.01112 -0.4073,2.49481 -2.44389,2.80029 v 0.53462 h 7.02621 v -0.53462 c -2.03658,-0.30548 -2.46936,-0.78917 -2.46936,-2.80029 v -3.58948 c 0.45823,0.0509 0.81464,0.0764 1.04375,0.0764 0.25457,0 0.58552,-0.0255 1.06921,-0.0764 2.11295,3.92043 2.95304,5.16783 4.37866,6.56797 1.19649,1.17104 2.80029,1.85839 4.32773,1.85839 0.56007,0 0.891,-0.0509 1.65472,-0.28003 z m -7.56081,-12.60136 c 0,1.32378 -0.45823,2.31662 -1.57835,3.38582 -0.56007,0.15274 -0.76372,0.17821 -1.34924,0.17821 -0.84009,0 -1.17103,-0.0509 -1.98567,-0.35641 v -7.28078 c 1.45107,0.0255 2.06204,0.15273 2.80031,0.5346 0.40731,0.20365 0.76372,0.45823 1.0692,0.78917 0.68735,0.7128 1.04375,1.68019 1.04375,2.74939 z m -11.75119,11.37942 v -0.53462 c -0.96737,-0.45822 -1.29832,-0.81462 -1.57835,-1.57834 l -5.09145,-14.20517 h -1.57836 l -4.73505,12.98322 c -0.76372,2.08749 -0.91647,2.26569 -2.46936,2.80029 v 0.53462 h 5.75334 v -0.53462 c -1.4256,-0.20365 -1.98566,-0.61097 -1.98566,-1.45106 0,-0.30548 0.10186,-0.81463 0.28004,-1.52743 l 0.50913,-2.11296 h 5.80427 l 1.04374,2.82576 c 0.12734,0.30548 0.1782,0.61097 0.1782,0.91647 0,0.7128 -0.30548,1.0692 -1.22194,1.34922 v 0.53462 z m -5.44785,-6.66982 h -5.09146 l 2.46935,-7.45899 z m -11.70106,-6.31341 -0.891,-3.69131 c -2.26569,0.61099 -2.92759,0.68735 -6.31341,0.68735 -3.43674,0 -4.09862,-0.0764 -6.36432,-0.68735 l -0.84008,3.74223 0.48368,0.28002 c 1.40016,-1.90929 2.36753,-2.54572 3.89497,-2.54572 h 1.75655 v 11.8631 c 0,1.70564 -0.73827,2.41844 -2.97851,2.80029 v 0.53462 h 8.24816 v -0.53462 c -2.34207,-0.33094 -3.15669,-1.0692 -3.15669,-2.80029 v -11.8631 h 1.75654 c 1.70564,0 2.64757,0.61098 3.86951,2.54572 z m -17.36452,8.75731 -0.5346,-0.15274 c -1.34923,2.52027 -2.41844,3.3349 -4.50593,3.3349 -1.98567,0 -2.52028,-0.5346 -2.52028,-2.41844 v -4.42956 l 2.46936,0.0764 c 2.01113,0.0509 2.39298,0.38185 2.8003,2.18932 h 0.5346 v -5.26966 h -0.5346 c -0.5346,1.62927 -0.99284,1.98567 -2.8003,2.03658 l -2.46936,0.0764 v -6.66981 l 2.6221,0.1782 c 1.57835,0.10187 2.46936,0.86555 3.51311,2.9785 l 0.5346,-0.1782 -0.3564,-3.84404 h -10.18292 v 0.50913 c 1.50199,0.53461 1.75656,1.01829 1.75656,3.15671 v 9.31738 c 0,2.01111 -0.40732,2.49481 -2.44391,2.80029 v 0.53461 h 11.22667 z m -15.42656,-3.3349 v -0.50914 h -6.49161 v 0.61097 c 1.96021,0.38185 2.4439,0.91645 2.4439,2.72392 v 1.04376 c 0,1.85837 -1.19649,2.82575 -3.56402,2.82575 -3.58948,0 -6.0843,-3.02941 -6.0843,-7.3826 0,-4.40413 2.18934,-7.38262 5.44787,-7.38262 2.49481,0 3.84404,1.04375 5.44785,4.22591 l 0.50915,-0.3564 -0.1782,-3.86951 c -2.52027,-0.84009 -3.61493,-1.04376 -5.32057,-1.04376 -2.72394,0 -4.68415,0.76372 -6.2625,2.44391 -1.45106,1.55289 -2.29116,3.81859 -2.29116,6.21157 0,2.54574 0.94192,4.81143 2.64756,6.4407 1.47652,1.40014 3.00396,1.93476 5.6006,1.93476 1.27287,0 2.41846,-0.15275 3.36038,-0.43278 1.93474,-0.61097 2.06204,-0.63644 2.36752,-0.63644 h 0.78917 l -0.3564,-2.44389 v -1.75656 c 0,-1.65472 0.3564,-2.13841 1.93476,-2.64755 z m -20.16481,3.3349 -0.5346,-0.15274 c -1.34924,2.52027 -2.41844,3.3349 -4.50595,3.3349 -1.98567,0 -2.52027,-0.5346 -2.52027,-2.41844 v -4.42956 l 2.46936,0.0764 c 2.01112,0.0509 2.39299,0.38185 2.8003,2.18932 h 0.53461 v -5.26966 h -0.53461 c -0.5346,1.62927 -0.99283,1.98567 -2.8003,2.03658 l -2.46936,0.0764 v -6.66981 l 2.62211,0.1782 c 1.57835,0.10187 2.46935,0.86555 3.51311,2.9785 l 0.5346,-0.1782 -0.3564,-3.84404 h -10.18292 v 0.50913 c 1.50198,0.53461 1.75656,1.01829 1.75656,3.15671 v 9.31738 c 0,2.01111 -0.40732,2.49481 -2.44391,2.80029 v 0.53461 h 11.22667 z m -14.29531,-11.65943 v -0.43278 h -5.6006 v 0.50914 c 1.50198,0.48369 1.93475,0.86556 1.93475,1.7311 0,0.5346 -0.12729,1.17103 -0.3564,1.88384 l -2.82576,8.60457 -3.33491,-9.49558 c -0.1782,-0.50915 -0.3564,-1.32377 -0.3564,-1.65472 0,-0.68735 0.30549,-0.91647 1.42561,-1.06921 v -0.50914 h -5.44786 v 0.50914 c 1.09467,0.50914 1.47652,0.89101 1.75655,1.68018 l 5.09146,14.56158 c 0.81463,-1.01829 1.06921,-1.47653 1.40015,-2.36753 l 4.40412,-11.76127 c 0.45822,-1.1965 0.76372,-1.5529 1.90929,-2.18932 z m -24.10657,10.3102 v -1.88384 l -3.61494,0.0764 h -1.93475 v -3.00396 l 0.1782,-2.16388 -1.75655,0.61098 v 4.55686 h -5.346033 l -0.356402,1.75655 3.156705,-0.1782 h 2.54573 v 2.29116 l -0.1782,3.8695 1.75655,-0.3564 v -5.80426 h 2.21478 z M 88.60855,122.07524 v -0.50914 h -6.669808 v 0.50914 c 2.036582,0.33094 2.4439,0.76372 2.469356,2.82576 l 0.178201,9.64832 -9.36828,-12.98322 h -3.793136 v 0.50914 c 2.087497,0.73826 2.571185,1.34924 2.4439,4.22592 l -0.356403,8.24816 c -0.101826,2.11295 -0.407316,2.49481 -2.443898,2.80029 v 0.53462 h 6.848009 v -0.53462 c -2.189327,-0.25457 -2.596643,-0.68734 -2.647557,-2.80029 l -0.178202,-9.57195 9.75014,13.46691 0.967376,-0.91647 0.356403,-12.62681 c 0.05092,-2.0875 0.432773,-2.49482 2.443899,-2.82576 z m -19.642934,15.80899 v -0.53462 c -0.967377,-0.45822 -1.298321,-0.81462 -1.578352,-1.57834 L 62.295807,121.5661 H 60.717456 L 55.9824,134.54932 c -0.763719,2.08749 -0.916461,2.26569 -2.469356,2.80029 v 0.53462 h 5.753347 v -0.53462 c -1.425608,-0.20365 -1.985668,-0.61097 -1.985668,-1.45106 0,-0.30548 0.101826,-0.81463 0.280029,-1.52743 l 0.509145,-2.11296 h 5.804262 l 1.043748,2.82576 c 0.12728,0.30548 0.178201,0.61097 0.178201,0.91647 0,0.7128 -0.305486,1.0692 -1.221949,1.34922 v 0.53462 z m -5.447858,-6.66982 H 58.4263 l 2.469356,-7.45899 z m -12.779017,-0.891 v -0.50914 h -6.491608 v 0.61097 c 1.960212,0.38185 2.4439,0.91645 2.4439,2.72392 v 1.04376 c 0,1.85837 -1.196492,2.82575 -3.56402,2.82575 -3.589477,0 -6.084291,-3.02941 -6.084291,-7.3826 0,-4.40413 2.189327,-7.38262 5.447859,-7.38262 2.494814,0 3.84405,1.04375 5.447859,4.22591 l 0.509145,-0.3564 -0.1782,-3.86951 c -2.520272,-0.84009 -3.614934,-1.04376 -5.320573,-1.04376 -2.723929,0 -4.68414,0.76372 -6.262492,2.44391 -1.451066,1.55289 -2.291155,3.81859 -2.291155,6.21157 0,2.54574 0.941919,4.81143 2.647557,6.4407 1.476523,1.40014 3.003961,1.93476 5.600603,1.93476 1.272864,0 2.418442,-0.15275 3.360362,-0.43278 1.934753,-0.61097 2.06204,-0.63644 2.367528,-0.63644 h 0.789174 l -0.356401,-2.44389 v -1.75656 c 0,-1.65472 0.356401,-2.13841 1.934753,-2.64755 z m -20.164808,3.3349 -0.534604,-0.15274 c -1.349236,2.52027 -2.418441,3.3349 -4.505939,3.3349 -1.985668,0 -2.520272,-0.5346 -2.520272,-2.41844 v -4.42956 l 2.469358,0.0764 c 2.011125,0.0509 2.392984,0.38185 2.800301,2.18932 h 0.534603 v -5.26966 h -0.534603 c -0.534603,1.62927 -0.992835,1.98567 -2.800301,2.03658 l -2.469358,0.0764 v -6.66981 l 2.622102,0.1782 c 1.57835,0.10187 2.469356,0.86555 3.513105,2.9785 l 0.534603,-0.1782 -0.356403,-3.84404 H 19.143612 v 0.50913 c 1.50198,0.53461 1.756553,1.01829 1.756553,3.15671 v 9.31738 c 0,2.01111 -0.407317,2.49481 -2.4439,2.80029 v 0.53461 H 29.682928 Z M 16.278618,121.99888 v -0.43278 h -5.600602 v 0.50914 c 1.50198,0.48369 1.934754,0.86556 1.934754,1.7311 0,0.5346 -0.127293,1.17103 -0.356403,1.88384 l -2.8257584,8.60457 -3.3349044,-9.49558 c -0.1782009,-0.50915 -0.356402,-1.32377 -0.356402,-1.65472 0,-0.68735 0.3054875,-0.91647 1.4256081,-1.06921 v -0.50914 h -5.447859 v 0.50914 c 1.0946632,0.50914 1.4765225,0.89101 1.7565526,1.68018 L 8.5650608,138.317 c 0.8146332,-1.01829 1.069206,-1.47653 1.4001507,-2.36753 L 14.369322,124.1882 c 0.458231,-1.1965 0.763719,-1.5529 1.909296,-2.18932 z M 295.83698,73.72867 c 0.28929,-4.646679 0.38873,-6.970017 1.83969,-13.167093 -13.06765,0 -19.74839,0.678016 -25.17252,4.646677 -6.87057,5.035407 -12.38963,14.712972 -12.38963,26.040379 0,11.811057 4.06358,17.040827 9.19843,17.040827 3.48501,0 9.48772,-3.00135 14.1344,-9.777003 l 0.3842,0.189844 -0.48365,9.004069 h 5.3247 c 5.22978,0 11.03812,-2.5177 11.3274,-9.87193 l -5.22977,0.77294 -0.48365,-0.483654 z m -10.3601,-5.713425 -1.45096,27.107127 -11.32741,4.7416 c -0.96731,-1.93461 -1.74024,-5.90327 -1.74024,-9.677566 0,-9.198432 3.29064,-17.135755 7.45367,-22.171161 h 7.06494 M 251.59862,53.98029 c 0.38421,-6.486364 0.48365,-8.615339 1.54588,-15.101703 l -1.35603,-1.455478 -16.9414,3.195722 6.68073,8.036763 -0.77293,12.389633 c -0.48365,-0.194364 -2.12897,-0.289286 -3.09628,-0.289286 -8.90915,0 -22.75425,11.81106 -22.75425,30.203405 0,15.101704 5.71342,17.330114 9.29786,17.330114 3.96867,0 9.87194,-3.87373 14.03496,-9.777003 l 0.38874,0.189844 -0.48366,9.004069 h 5.51906 c 5.22525,0 11.0336,-3.29064 11.13304,-9.87193 l -5.22978,0.77294 -0.48365,-0.483654 z m -11.3274,14.034955 -1.45096,27.107127 -11.32742,4.7416 c -0.9673,-1.93461 -1.74476,-5.90327 -1.74476,-9.677566 0,-9.198432 3.29518,-17.135755 7.45368,-22.171161 h 7.06946 m -29.91412,29.819195 -5.41963,0.77294 -0.28928,-0.388731 1.64532,-31.848726 c 0.18984,-3.679373 -2.42277,-6.386921 -6.39144,-6.386921 -6.00271,0 -11.03812,4.063581 -15.68028,11.517251 l -0.19436,-0.194364 0.67801,-10.744312 h -5.32469 c -6.39144,0 -10.93868,2.906432 -12.10034,10.360102 l 6.09763,-0.678018 0.28929,0.384209 -1.83969,36.30556 h 11.32741 c -0.28929,-4.45231 -0.38873,-8.520416 -0.38873,-8.520416 l 1.16165,-23.522676 9.10352,-5.130329 2.02954,1.54588 c 0.19437,3.679373 0.38873,3.584449 0.19437,6.780171 l -1.55041,29.62031 h 5.3247 c 5.90778,0 11.13305,-3.19572 11.32741,-9.87193 m -48.11211,0 -5.0354,0.77294 -0.57858,-0.967306 1.25659,-23.911404 1.26112,-13.167093 H 153.146 c -7.06493,0 -11.22796,3.58445 -12.10035,10.360102 l 5.61399,-0.678018 0.48365,0.483653 c 0.28928,1.450956 0.0949,2.901912 0,5.708904 l -1.5504,31.270152 h 5.3247 c 5.80834,0 11.23248,-3.29064 11.3274,-9.87193 M 135.91533,71.016601 c 0,-4.063583 -0.19437,-8.615338 -0.38873,-10.455024 h -3.96867 c -3.87373,0 -8.52041,3.390085 -8.52041,8.71478 v 1.062226 l 4.74612,-0.678017 0.48365,0.483653 c 0.0949,0.678016 0.57857,1.839687 0.57857,4.940484 0,8.515897 -2.12897,23.522677 -12.00542,24.684346 l -2.12897,-1.450957 c -0.57858,-2.422782 -0.57858,-4.262468 -0.57858,-6.875094 0,-2.223896 0,-4.257948 0.19437,-6.680729 l 1.54588,-24.200692 h -6.09764 c -5.61398,0 -10.744309,2.906432 -11.616693,10.360102 l 6.097633,-0.678018 0.0994,2.223896 -1.06674,21.203857 c 0,0.77294 -0.0949,1.356035 -0.0949,2.029531 0,8.520415 4.35739,12.005425 10.35558,12.005425 14.81241,0 22.36553,-22.361006 22.36553,-36.689769 m -41.820107,6.391443 c 0,-13.167095 -4.841041,-17.135755 -15.00678,-17.135755 -12.873285,0 -21.294258,13.745668 -21.294258,30.108483 0,12.195268 3.869218,17.908688 14.518607,17.908688 12.100347,0 21.782431,-12.100342 21.782431,-30.881416 z m -10.744312,1.25659 c 0,5.613983 -0.488172,15.874643 -3.485007,22.071716 h -3.778816 c -6.291998,0 -7.54859,-3.385562 -7.54859,-11.811056 0,-6.77565 0.678017,-15.196624 3.57993,-21.488624 h 3.584451 c 6.192557,0 7.648033,3.774296 7.648033,11.227964 M 52.370049,75.274549 H 27.880068 l 1.356034,2.811511 7.354227,3.57993 -0.967305,18.297424 -1.450956,1.645326 c -0.967304,0.57857 -2.806991,1.25659 -5.130331,1.25659 -11.716136,0 -16.069005,-7.259306 -16.069005,-21.777914 0,-21.588067 6.676208,-33.498569 18.487266,-33.498569 2.228418,0 4.551756,0.678017 5.613983,1.356035 l 1.356035,1.744764 3.19572,8.321531 5.613983,2.617146 0.967304,-10.165739 1.16167,-6.486363 C 41.625736,43.525265 36.495406,43.231456 31.749286,43.231456 10.54995,43.231456 1.5e-6,60.755941 1.5e-6,81.66599 c 0,17.135755 9.7770079,26.32967 23.3283115,26.32967 5.613983,0 13.262016,-0.18985 24.783787,-3.29065 l -0.483652,-4.935961 1.161671,-19.169805 3.485008,-3.001356 0.09492,-2.323339"
     inkscape:connector-curvature="0"
     style="fill:#789417;fill-opacity:1;stroke-width:1.15714931" />
</svg>
