<svg width="262" height="122" viewBox="0 0 262 122" xmlns="http://www.w3.org/2000/svg">
  <path fill="#dda227" d="M162.398 1.135c-33.195-1.976-52.993 17.96-38.248 43.997 27.732 10.888 45.043-11.21 38.243-43.997z"/>
  <path fill="#bc791f" d="M155.95 8.557c-26.557-2.324-42.672 13.888-30.298 34.855 22.403 9.263 36.48-8.72 30.3-34.854z"/>
  <path fill="#b2b416" d="M134.086 43.046c6.918 1.537 13.878-2.862 15.545-9.828 1.67-6.966-2.59-13.862-9.5-15.4-6.92-1.54-13.87 2.86-15.54 9.828-1.66 6.966 2.59 13.86 9.51 15.4z"/>
  <path fill="#98a429" d="M46.367 65.71H25.14l1.173 2.433 6.377 3.105-.84 15.866-1.253 1.424c-.832.502-2.427 1.093-4.443 1.093-10.15 0-13.92-6.28-13.92-18.87 0-18.7 5.786-29.02 16.026-29.02 1.936 0 3.942.59 4.865 1.18l1.173 1.52 2.768 7.22 4.874 2.27.843-8.8 1.013-5.62C37.076 38.25 32.633 38 28.52 38 10.15 37.96 1 53.158 1 71.28c0 14.85 8.475 22.824 20.23 22.824 4.864 0 11.493-.16 21.483-2.848l-.422-4.282 1.01-16.608 3.02-2.608.08-2.005zm36.164 1.847c0-11.41-4.19-14.85-13-14.85-11.16 0-18.46 11.913-18.46 26.092 0 10.57 3.36 15.52 12.59 15.52 10.49 0 18.88-10.49 18.88-26.77zm-9.31 1.09c0 4.868-.42 13.76-3.02 19.13h-3.27c-5.45 0-6.54-2.93-6.54-10.23 0-5.867.59-13.168 3.11-18.624h3.11c5.38 0 6.63 3.27 6.63 9.738zm45.56-6.63c0-3.52-.16-7.465-.33-9.06h-3.44c-3.35 0-7.38 2.937-7.38 7.552v.92l4.11-.59.42.42c.09.58.51 1.59.51 4.28 0 7.39-1.84 20.39-10.4 21.4l-1.84-1.26c-.5-2.1-.5-3.69-.5-5.96 0-1.93 0-3.69.17-5.79l1.35-20.97h-5.29c-4.86 0-9.3 2.51-10.07 8.98l5.29-.58.08 1.93-.92 18.38c0 .67-.08 1.17-.08 1.76 0 7.38 3.78 10.41 8.98 10.41 12.84 0 19.39-19.39 19.39-31.81zm22.83 23.24l-4.36.673-.5-.838 1.09-20.723 1.09-11.41h-5.19c-6.11 0-9.73 3.11-10.49 8.98l4.87-.58.42.42c.25 1.26.08 2.51 0 4.95l-1.34 27.11h4.63c5.04 0 9.74-2.85 9.82-8.56zm41.7 0l-4.7.673-.25-.334 1.43-27.605c.17-3.18-2.09-5.53-5.53-5.53-5.2 0-9.57 3.53-13.6 9.99l-.17-.16.58-9.31h-4.61c-5.53 0-9.49 2.52-10.49 8.98l5.29-.59.25.34-1.59 31.46h9.82c-.26-3.86-.34-7.38-.34-7.38l1-20.39 7.88-4.44 1.76 1.34c.16 3.19.33 3.11.16 5.87l-1.34 25.68h4.61c5.12 0 9.65-2.77 9.82-8.55zm35.75-38.005c.34-5.62.42-7.467 1.34-13.088l-1.17-1.26-14.68 2.77 5.79 6.963-.67 10.74c-.42-.17-1.84-.252-2.68-.252-7.72 0-19.71 10.237-19.71 26.176 0 13.09 4.95 15.02 8.06 15.02 3.44 0 8.56-3.35 12.17-8.47l.34.17-.42 7.81h4.79c4.53 0 9.57-2.85 9.65-8.56l-4.53.67-.42-.41 2.18-38.26zm-9.82 12.165l-1.26 23.493-9.81 4.113c-.84-1.68-1.51-5.12-1.51-8.39 0-7.972 2.86-14.852 6.46-19.215h6.13zm48.15 4.95c.25-4.026.34-6.04 1.6-11.41-11.33 0-17.12.588-21.814 4.028-5.957 4.363-10.74 12.747-10.74 22.565 0 10.23 3.524 14.763 7.97 14.763 3.02 0 8.224-2.598 12.25-8.475l.336.17-.42 7.803h4.616c4.534 0 9.567-2.18 9.82-8.56l-4.532.67-.418-.42 1.333-21.15zm-8.98-4.95l-1.26 23.494-9.81 4.12c-.842-1.68-1.514-5.12-1.514-8.39 0-7.97 2.85-14.85 6.46-19.213h6.127zM16.06 108.64v-.526h-5.01v.526c1.153.2 1.655.827 1.655 1.304 0 .25 0 .7-.276 1.404l-2.46 6.162-2.81-6.84c-.2-.5-.28-.782-.28-1.233 0-.38.42-.732 1.25-.803v-.53H3.1v.52l.477.2c.652.272.88.552 1.077 1.054l4.51 11.102c.7-.782.975-1.183 1.252-1.835l3.883-8.926c.42-1.01.75-1.29 1.75-1.59zm13.258 8.77l-.527-.15c-1.17 1.98-1.97 2.482-4 2.482-2.15 0-2.45-.2-2.45-1.753v-3.49l1.81.1c1.26.07 1.69.4 2.09 1.8h.53v-4.59h-.52c-.38 1.42-.73 1.78-2.08 1.82l-1.8.07v-4.84l2.34.08c1.86.05 2.43.45 3.35 2.17l.52-.18-.35-2.86h-9.68v.52c1.43.25 1.73.65 1.73 2.22v7.21c0 1.42-.48 1.87-2.15 2v.52h10.62l.6-3.21zm17.164-2.505v-.5h-6.064v.575c1.705.275 2.23.752 2.23 2.13v.703c0 1.384-1.076 2.156-2.98 2.156-3.183 0-5.39-2.31-5.39-5.59 0-3.36 1.957-5.59 4.813-5.59 2.26 0 3.34.68 4.84 3.19l.48-.27-.15-2.93c-2.25-.62-3.21-.86-4.73-.86-4.88 0-7.57 2.69-7.57 6.62 0 1.95.82 3.66 2.33 4.88 1.31 1.08 2.68 1.48 4.96 1.48 1.16 0 2.16-.12 2.98-.35 1.56-.4 1.73-.48 1.93-.48h.17c.23 0 .46.05.71.08l-.33-1.94v-1.26c0-1.22.4-1.67 1.77-2.04zm14.96 5.714v-.54c-.826-.33-1.153-.58-1.378-1.16L55.654 108H54.05l-4.11 10.07c-.576 1.424-.852 1.654-2.154 2.005v.522h5.012v-.534c-1.003-.18-1.154-.23-1.428-.45-.176-.15-.276-.38-.276-.603 0-.28.1-.63.25-1.07l.502-1.505h5.112l.853 2.077c.13.32.2.552.2.722 0 .4-.35.67-1.05.82v.523h4.49zm-4.934-5.1h-4.31l2.105-5.89 2.204 5.88zm22.802-6.89v-.53h-5.887v.52c1.735.22 2.186.7 2.236 2.15l.2 7.06-8.3-9.75H64.1v.52c1.806.55 2.308 1.14 2.208 3.18l-.3 6.2c-.07 1.47-.523 1.93-2.258 2.06v.52h6.218v-.53c-1.823-.07-2.375-.6-2.395-2.06l-.15-7.19L76.05 121l.853-.702.33-9.548c.05-1.424.452-1.895 2.107-2.146zm17.993 6.07v-1.66l-3.16.06h-1.695v-2.64l.16-1.9-1.534.53v3.99H86.39l-.31 1.53 2.768-.16h2.236v2l-.15 3.39 1.545-.31v-5.09h1.94l2.93.2zm18.203-6.08v-.53h-5.004v.52c1.153.2 1.654.82 1.654 1.3 0 .25 0 .7-.27 1.4l-2.458 6.16-2.808-6.84c-.2-.5-.27-.79-.27-1.24 0-.38.43-.74 1.253-.81v-.53h-5.045v.53l.482.2c.652.27.872.55 1.073 1.05l4.513 11.1c.702-.79.973-1.19 1.254-1.84l3.88-8.95c.432-1.01.753-1.29 1.756-1.59zm13.26 8.76l-.522-.15c-1.174 1.97-1.976 2.47-4.002 2.47-2.156 0-2.457-.2-2.457-1.76v-3.49l1.805.1c1.254.07 1.685.4 2.076 1.8h.532v-4.6h-.522c-.37 1.42-.722 1.77-2.076 1.82l-1.805.08v-4.85l2.337.07c1.855.05 2.427.45 3.36 2.17l.53-.17-.35-2.86h-9.668v.52c1.434.25 1.735.65 1.735 2.23V118c0 1.43-.48 1.88-2.15 2.003v.53h10.63l.6-3.21zm17.17-2.51v-.5h-6.068v.57c1.705.27 2.237.75 2.237 2.12v.7c0 1.37-1.074 2.15-2.98 2.15-3.18 0-5.385-2.31-5.385-5.59 0-3.36 1.956-5.59 4.814-5.59 2.257 0 3.34.67 4.834 3.18l.482-.29-.15-2.93c-2.257-.64-3.21-.86-4.735-.86-4.884 0-7.562 2.68-7.562 6.62 0 1.95.833 3.65 2.337 4.88 1.304 1.07 2.688 1.47 4.965 1.47 1.153 0 2.156-.13 2.988-.35 1.555-.41 1.735-.49 1.936-.49h.18c.23 0 .45.05.7.07l-.32-1.93v-1.25c0-1.24.4-1.69 1.78-2.06zm14.11 2.51l-.52-.15c-1.174 1.97-1.976 2.47-4.012 2.47-2.156 0-2.457-.2-2.457-1.76v-3.49l1.805.1c1.254.07 1.685.4 2.086 1.8h.532v-4.6h-.522c-.37 1.42-.722 1.77-2.076 1.82l-1.805.08v-4.85l2.337.07c1.855.05 2.437.45 3.36 2.17l.53-.17-.35-2.86h-9.668v.52c1.424.25 1.725.65 1.725 2.23V118c0 1.43-.47 1.88-2.14 2.003v.53h10.63l.59-3.21zm14.384-6.05l-.672-3.43c-2.026.5-2.558.55-5.807.55-3.11 0-3.63-.05-5.58-.56l-.7 3.43.43.25c1.01-1.71 1.74-2.24 3.39-2.24h1.56v8.19c0 1.7-.6 2.27-2.61 2.5v.52h7.45v-.53c-2.12-.18-2.76-.75-2.76-2.51v-8.2h1.55c1.8 0 2.33.5 3.38 2.29l.4-.33zm13.66 9.24v-.54c-.823-.33-1.144-.58-1.374-1.16l-4.403-10.93h-1.626l-4.112 10.07c-.575 1.42-.853 1.65-2.153 2v.52h5.01V120c-1.002-.174-1.152-.225-1.43-.45-.17-.15-.273-.376-.273-.6 0-.28.11-.63.25-1.075l.5-1.503h5.11l.85 2.08c.13.326.2.55.2.73 0 .4-.35.68-1.06.83v.532h4.48zm-4.935-5.09h-4.312l2.106-5.89 2.2 5.88zm21.473 5.05v-.31c-1.524-.25-2.096-.45-2.778-1.06-.922-.8-1.755-1.8-3.63-4.31 1.103-.93 1.504-1.36 1.855-1.99.33-.58.502-1.28.502-1.91 0-1.88-1.425-3.01-3.762-3.01-.792 0-1.354.05-2.778.28l-3.46-.2v.52c1.505.4 1.906.9 1.906 2.43v7.04c0 1.4-.452 1.85-2.076 2v.52h6.218V120c-1.575-.2-2.046-.68-2.046-2.005v-2.66c.43.02.75.05.98.05.2 0 .53-.03.93-.05 1.25 2.21 1.95 3.21 2.89 4.035 1.08 1 2.12 1.453 3.33 1.453.65 0 1-.05 1.95-.33zm-5.937-8.63c0 1.07-.45 1.85-1.37 2.47-.52.15-.7.17-1.25.17-.72 0-.95-.15-1.49-.38v-5.23c2.13 0 2.48.2 3.23.8.65.52.9 1.35.9 2.15zm14.35 8.64V120c-1.75-.1-2.25-.55-2.25-1.998v-7.36c0-1.454.5-1.905 2.26-2.086v-.53h-6.39v.52c1.64.22 2.09.65 2.09 2.074V118c0 1.402-.53 1.873-2.25 2.003v.52h6.57zm12.38-3.08c0-.86-.42-1.76-1.07-2.29-.45-.35-1.1-.79-1.92-1.21-1.37-.74-2.15-1.26-2.72-1.78-.45-.45-.75-1.1-.75-1.71 0-1 .89-1.76 2.06-1.76.97 0 1.91.5 2.63 1.4.33.37.68.85 1.05 1.41l.53-.18-.52-2.81c-1.57-.53-2.27-.67-3.26-.67-2.5 0-4.2 1.37-4.2 3.38 0 .92.39 1.77 1.13 2.47.43.4.88.75 1.33 1 .28.15.89.47 1.84.97 1.43.77 1.91 1.3 1.91 2.15 0 1.17-.93 2.02-2.23 2.02-.75 0-1.68-.38-2.4-1.03-.68-.62-1.02-1.08-1.5-2.33l-.52.27.32 3.18c1.86.637 2.68.81 3.91.81 2.63 0 4.46-1.376 4.46-3.36zm14.97-.65l-.5-.13c-1.17 2.25-2.72 3.21-4.43 3.21-2.42 0-4.71-2.46-4.71-5.82 0-3.16 1.74-5.34 4.54-5.34.92 0 1.95.27 2.48.76.53.47 1.06 1.3 1.56 2.39l.45-.15v-2.93c-1.82-.75-2.62-.95-4.13-.95-4.5 0-7.21 2.66-7.21 6.49 0 1.97.95 3.91 2.51 5.13 1.24.95 2.49 1.32 4.62 1.32 1.45 0 2.14-.1 3.93-.55l.92-3.46zm18.65 3.73v-.53c-1.52-.25-1.89-.69-1.89-2.06v-7.31c0-1.36.4-1.81 1.91-2.09v-.53h-5.54v.55c1.26.35 1.56.81 1.56 2.31v2.16l-.52.35h-6.74v-2.75c0-1.36.43-1.81 1.91-2.09v-.53h-5.52v.55c1.26.35 1.56.8 1.56 2.31v7.06c0 1.4-.43 1.82-2 2.05v.52h5.97V120c-1.5-.25-1.9-.683-1.9-2.057v-3.18l.54-.33h6.74v3.51c0 1.422-.42 1.874-2.08 2.054v.526h6.07z"/>
  <path fill="#a33518" d="M141.628 25.018c-12.983-2.718-19.1 8.388-12.723 14.13 6.23 5.61 16.76-1.717 12.723-14.13z"/>
</svg>
